<?xml version="1.0" encoding="UTF-8" standalone="no"?>
<!-- Created with Inkscape (http://www.inkscape.org/) -->

<svg
   xmlns:dc="http://purl.org/dc/elements/1.1/"
   xmlns:cc="http://creativecommons.org/ns#"
   xmlns:rdf="http://www.w3.org/1999/02/22-rdf-syntax-ns#"
   xmlns:svg="http://www.w3.org/2000/svg"
   xmlns="http://www.w3.org/2000/svg"
   xmlns:sodipodi="http://sodipodi.sourceforge.net/DTD/sodipodi-0.dtd"
   xmlns:inkscape="http://www.inkscape.org/namespaces/inkscape"
   width="744.09448819"
   height="1052.3622047"
   id="svg4163"
   version="1.1"
   inkscape:version="0.48.4 r9939"
   sodipodi:docname="Nytt dokument 2">
  <defs
     id="defs4165" />
  <sodipodi:namedview
     id="base"
     pagecolor="#ffffff"
     bordercolor="#666666"
     borderopacity="1.0"
     inkscape:pageopacity="0.0"
     inkscape:pageshadow="2"
     inkscape:zoom="1.979899"
     inkscape:cx="637.64225"
     inkscape:cy="384.8171"
     inkscape:document-units="px"
     inkscape:current-layer="layer1"
     showgrid="false"
     inkscape:window-width="1879"
     inkscape:window-height="1176"
     inkscape:window-x="41"
     inkscape:window-y="24"
     inkscape:window-maximized="1" />
  <metadata
     id="metadata4168">
    <rdf:RDF>
      <cc:Work
         rdf:about="">
        <dc:format>image/svg+xml</dc:format>
        <dc:type
           rdf:resource="http://purl.org/dc/dcmitype/StillImage" />
        <dc:title></dc:title>
      </cc:Work>
    </rdf:RDF>
  </metadata>
  <g
     inkscape:label="Layer 1"
     inkscape:groupmode="layer"
     id="layer1">
    <g
       style="display:inline"
       id="g8773"
       transform="matrix(1.3775141,0,0,1.4956465,1220.0256,389.8372)">
      <path
         style="fill:none;stroke:#2e3436;stroke-width:1.63005519;stroke-linecap:butt;stroke-linejoin:miter;stroke-opacity:1"
         d="m -720,122.36218 0,240 360,0"
         id="path8758"
         inkscape:connector-curvature="0" />
      <path
         style="fill:#2e3436;fill-opacity:1;stroke:none"
         d="m -720,115.21646 3.75,7.5 -7.5,0 z"
         id="rect8760"
         inkscape:connector-curvature="0"
         sodipodi:nodetypes="cccc" />
      <path
         sodipodi:nodetypes="cccc"
         inkscape:connector-curvature="0"
         id="path8763"
         d="m -352.85428,362.36218 -7.5,3.75 0,-7.5 z"
         style="fill:#2e3436;fill-opacity:1;stroke:none" />
    </g>
    <text
       xml:space="preserve"
       style="font-size:22.83273888px;font-style:normal;font-variant:normal;font-weight:normal;font-stretch:normal;text-align:center;line-height:100%;letter-spacing:0px;word-spacing:0px;text-anchor:middle;fill:#2e3436;fill-opacity:1;stroke:none;display:inline;font-family:Myriad Pro;-inkscape-font-specification:Myriad Pro"
       x="237.51126"
       y="504.16199"
       id="text9124"
       sodipodi:linespacing="100%"
       transform="scale(0.95969567,1.041997)"><tspan
         id="tspan9126"
         sodipodi:role="line"
         x="237.51126"
         y="504.16199"
         style="font-size:18.42180443px;text-align:center;line-height:100%;text-anchor:middle;fill:#2e3436;fill-opacity:1">video</tspan><tspan
         id="tspan4721"
         sodipodi:role="line"
         x="237.51126"
         y="522.5838"
         style="font-size:18.42180443px;text-align:center;line-height:100%;text-anchor:middle;fill:#2e3436;fill-opacity:1">quality</tspan></text>
    <text
       xml:space="preserve"
       style="font-size:22.83273888px;font-style:normal;font-variant:normal;font-weight:normal;font-stretch:normal;text-align:center;line-height:100%;letter-spacing:0px;word-spacing:0px;text-anchor:middle;fill:#2e3436;fill-opacity:1;stroke:none;display:inline;font-family:Myriad Pro;-inkscape-font-specification:Myriad Pro"
       x="519.29254"
       y="925.37244"
       id="text4743"
       sodipodi:linespacing="100%"
       transform="scale(0.95969567,1.041997)"><tspan
         id="tspan4745"
         sodipodi:role="line"
         x="519.29254"
         y="925.37244"
         style="font-size:18.42180443px;text-align:center;line-height:100%;text-anchor:middle;fill:#2e3436;fill-opacity:1">2014</tspan></text>
    <text
       sodipodi:linespacing="100%"
       id="text4747"
       y="925.37244"
       x="697.94684"
       style="font-size:22.83273888px;font-style:normal;font-variant:normal;font-weight:normal;font-stretch:normal;text-align:center;line-height:100%;letter-spacing:0px;word-spacing:0px;text-anchor:middle;fill:#2e3436;fill-opacity:1;stroke:none;display:inline;font-family:Myriad Pro;-inkscape-font-specification:Myriad Pro"
       xml:space="preserve"
       transform="scale(0.95969567,1.041997)"><tspan
         style="font-size:18.42180443px;text-align:center;line-height:100%;text-anchor:middle;fill:#2e3436;fill-opacity:1"
         y="925.37244"
         x="697.94684"
         sodipodi:role="line"
         id="tspan4749">2016</tspan></text>
    <text
       sodipodi:linespacing="100%"
       id="text4751"
       y="925.37244"
       x="341.02493"
       style="font-size:22.83273888px;font-style:normal;font-variant:normal;font-weight:normal;font-stretch:normal;text-align:center;line-height:100%;letter-spacing:0px;word-spacing:0px;text-anchor:middle;fill:#2e3436;fill-opacity:1;stroke:none;display:inline;font-family:Myriad Pro;-inkscape-font-specification:Myriad Pro"
       xml:space="preserve"
       transform="scale(0.95969567,1.041997)"><tspan
         style="font-size:18.42180443px;text-align:center;line-height:100%;text-anchor:middle;fill:#2e3436;fill-opacity:1"
         y="925.37244"
         x="341.02493"
         sodipodi:role="line"
         id="tspan4753">2012</tspan></text>
    <rect
       style="fill:#062747;fill-opacity:1;stroke:none;display:inline"
       id="rect4737"
       width="418.90683"
       height="65.690338"
       x="296.14249"
       y="855.77008" />
    <rect
       y="805.59845"
       x="437.95108"
       height="43.354515"
       width="277.60541"
       id="rect4739"
       style="fill:#062747;fill-opacity:1;stroke:none;display:inline" />
    <rect
       style="fill:#a72410;fill-opacity:1;stroke:none;display:inline"
       id="rect4741"
       width="160.42755"
       height="181.37955"
       x="554.58099"
       y="616.77063" />
    <text
       sodipodi:linespacing="100%"
       id="text6502"
       y="737.04584"
       x="587.4234"
       style="font-size:22.83273888px;font-style:normal;font-variant:normal;font-weight:600;font-stretch:normal;text-align:center;line-height:100%;letter-spacing:0px;word-spacing:0px;text-anchor:middle;fill:#ffffff;fill-opacity:1;stroke:none;display:inline;font-family:Myriad Pro;-inkscape-font-specification:Myriad Pro Semi-Bold"
       xml:space="preserve"
       transform="scale(0.95969567,1.041997)"><tspan
         style="font-size:18.42180443px;font-weight:600;text-align:start;line-height:100%;text-anchor:start;fill:#ffffff;fill-opacity:1;-inkscape-font-specification:Myriad Pro Semi-Bold"
         y="737.04584"
         x="587.4234"
         sodipodi:role="line"
         id="tspan6504">optical flow </tspan><tspan
         style="font-size:18.42180443px;font-weight:600;text-align:start;line-height:100%;text-anchor:start;fill:#ffffff;fill-opacity:1;-inkscape-font-specification:Myriad Pro Semi-Bold"
         y="755.46765"
         x="587.4234"
         sodipodi:role="line"
         id="tspan6529">stabilization</tspan></text>
    <text
       xml:space="preserve"
       style="font-size:22.83273888px;font-style:normal;font-variant:normal;font-weight:600;font-stretch:normal;text-align:center;line-height:100%;letter-spacing:0px;word-spacing:0px;text-anchor:middle;fill:#ffffff;fill-opacity:1;stroke:none;display:inline;font-family:Myriad Pro;-inkscape-font-specification:Myriad Pro Semi-Bold"
       x="465.16653"
       y="804.19324"
       id="text6506"
       sodipodi:linespacing="100%"
       transform="scale(0.95969567,1.041997)"><tspan
         id="tspan6508"
         sodipodi:role="line"
         x="465.16653"
         y="804.19324"
         style="font-size:18.42180443px;font-weight:600;text-align:start;line-height:100%;text-anchor:start;fill:#ffffff;fill-opacity:1;-inkscape-font-specification:Myriad Pro Semi-Bold">optical image stabilization</tspan></text>
    <text
       sodipodi:linespacing="100%"
       id="text6510"
       y="872.3288"
       x="316.09818"
       style="font-size:22.83273888px;font-style:normal;font-variant:normal;font-weight:600;font-stretch:normal;text-align:center;line-height:100%;letter-spacing:0px;word-spacing:0px;text-anchor:middle;fill:#ffffff;fill-opacity:1;stroke:none;display:inline;font-family:Myriad Pro;-inkscape-font-specification:Myriad Pro Semi-Bold"
       xml:space="preserve"
       transform="scale(0.95969567,1.041997)"><tspan
         style="font-size:18.42180443px;font-weight:600;text-align:start;line-height:100%;text-anchor:start;fill:#ffffff;fill-opacity:1;-inkscape-font-specification:Myriad Pro Semi-Bold"
         y="872.3288"
         x="316.09818"
         sodipodi:role="line"
         id="tspan6512">electronic image stabilization</tspan></text>
    <text
       sodipodi:linespacing="125%"
       id="text6720"
       y="648.18793"
       x="502.76358"
       style="font-size:27.2625885px;font-style:normal;font-variant:normal;font-weight:normal;font-stretch:normal;text-align:start;line-height:125%;letter-spacing:0px;word-spacing:0px;text-anchor:start;fill:#a73e10;fill-opacity:1;stroke:none;display:inline;font-family:Myriad Pro;-inkscape-font-specification:Myriad Pro"
       xml:space="preserve"><tspan
         style="font-size:32.71510696px;text-align:start;text-anchor:start;fill:#a73e10;fill-opacity:1"
         y="648.18793"
         x="502.76358"
         id="tspan6722"
         sodipodi:role="line">3rd</tspan></text>
    <text
       xml:space="preserve"
       style="font-size:27.2625885px;font-style:normal;font-variant:normal;font-weight:normal;font-stretch:normal;text-align:start;line-height:125%;letter-spacing:0px;word-spacing:0px;text-anchor:start;fill:#062747;fill-opacity:1;stroke:none;display:inline;font-family:Myriad Pro;-inkscape-font-specification:Myriad Pro"
       x="372.59073"
       y="835.63672"
       id="text6724"
       sodipodi:linespacing="125%"><tspan
         sodipodi:role="line"
         id="tspan6726"
         x="372.59073"
         y="835.63672"
         style="font-size:32.71510696px;text-align:start;text-anchor:start;fill:#062747;fill-opacity:1">2nd</tspan></text>
    <text
       sodipodi:linespacing="125%"
       id="text6728"
       y="885.10242"
       x="242.41788"
       style="font-size:27.2625885px;font-style:normal;font-variant:normal;font-weight:normal;font-stretch:normal;text-align:start;line-height:125%;letter-spacing:0px;word-spacing:0px;text-anchor:start;fill:#062747;fill-opacity:1;stroke:none;display:inline;font-family:Myriad Pro;-inkscape-font-specification:Myriad Pro"
       xml:space="preserve"><tspan
         style="font-size:32.71510696px;text-align:start;text-anchor:start;fill:#062747;fill-opacity:1"
         y="885.10242"
         x="242.41788"
         id="tspan6730"
         sodipodi:role="line">1st</tspan></text>
    <text
       transform="scale(0.95969567,1.041997)"
       sodipodi:linespacing="100%"
       id="text3351"
       y="794.02161"
       x="737.37164"
       style="font-size:22.83273888px;font-style:normal;font-variant:normal;font-weight:600;font-stretch:normal;text-align:end;line-height:100%;letter-spacing:0px;word-spacing:0px;text-anchor:end;fill:#ffffff;fill-opacity:1;stroke:none;display:inline;font-family:Myriad Pro;-inkscape-font-specification:Myriad Pro Semi-Bold"
       xml:space="preserve"><tspan
         style="font-size:18.42180443px;font-weight:600;text-align:end;line-height:100%;text-anchor:end;fill:#ffffff;fill-opacity:1;-inkscape-font-specification:Myriad Pro Semi-Bold"
         y="794.02161"
         x="737.37164"
         sodipodi:role="line"
         id="tspan3353">OIS</tspan></text>
    <text
       xml:space="preserve"
       style="font-size:22.83273888px;font-style:normal;font-variant:normal;font-weight:600;font-stretch:normal;text-align:end;line-height:100%;letter-spacing:0px;word-spacing:0px;text-anchor:end;fill:#ffffff;fill-opacity:1;stroke:none;display:inline;font-family:Myriad Pro;-inkscape-font-specification:Myriad Pro Semi-Bold"
       x="736.8443"
       y="842.15271"
       id="text3355"
       sodipodi:linespacing="100%"
       transform="scale(0.95969567,1.041997)"><tspan
         id="tspan3357"
         sodipodi:role="line"
         x="736.8443"
         y="842.15271"
         style="font-size:18.42180443px;font-weight:600;text-align:end;line-height:100%;text-anchor:end;fill:#ffffff;fill-opacity:1;-inkscape-font-specification:Myriad Pro Semi-Bold">EIS</tspan></text>
    <g
       id="g4257"
       transform="translate(-8,0)">
      <path
         inkscape:connector-curvature="0"
         style="fill:#eeeeec;fill-opacity:1;fill-rule:nonzero;stroke:none"
         id="path83"
         d="m 660.52056,668.86139 0,-5.70313 c 2.17087,0.0304 4.08818,0.16637 5.75353,0.36954 -0.21117,0.43673 -0.39595,0.89746 -0.63271,1.2894 -1.40858,2.32445 -3.21151,3.70104 -5.12082,4.04419 m -1.80773,-0.0104 c -1.89251,-0.35755 -3.67144,-1.72774 -5.06883,-4.03379 -0.23756,-0.39274 -0.43113,-0.85187 -0.6423,-1.2894 1.65495,-0.20157 3.55546,-0.33835 5.71113,-0.36955 l 0,5.69274 z m -5.2376,-1.23501 c -1.72614,-0.79668 -3.27231,-1.89891 -4.56331,-3.26431 0.0224,-0.01 0.0176,-0.0112 0.0416,-0.0208 0.45513,-0.18638 1.24941,-0.37835 2.16608,-0.54872 0.30635,0.6855 0.6215,1.36779 0.98865,1.9749 0.41273,0.6791 0.87746,1.291 1.36699,1.85892 m 12.33572,0 c 0.48793,-0.56792 0.95506,-1.17982 1.3654,-1.85892 0.36715,-0.60711 0.68389,-1.2894 0.99105,-1.9749 0.91586,0.17037 1.70934,0.36234 2.16447,0.54872 0.0168,0.007 0.0144,0.003 0.0304,0.0112 -1.2918,1.367 -2.82277,2.47643 -4.55131,3.27391 m -18.04446,-4.66889 c -1.62375,-2.19967 -2.622,-4.85447 -2.82997,-7.75163 l 4.30175,0 c 0.0976,2.48602 0.53272,4.80647 1.23901,6.88616 -0.83267,0.16637 -1.62695,0.33595 -2.19726,0.57031 -0.19517,0.0792 -0.34715,0.19757 -0.51353,0.29516 m 23.754,0 c -0.16798,-0.0976 -0.32155,-0.21597 -0.51592,-0.29516 -0.56712,-0.23356 -1.367,-0.40394 -2.19567,-0.57031 0.70469,-2.07969 1.12943,-4.40014 1.22861,-6.88616 l 4.31214,0 c -0.20957,2.89476 -1.21021,5.55196 -2.82916,7.75163 m -19.24348,-1.16143 c -0.69669,-1.9501 -1.12703,-4.18017 -1.23101,-6.5902 l 7.66683,0 0,6.15747 c -2.43083,0.0336 -4.5961,0.18317 -6.43582,0.43273 m 14.72097,0 c -1.85092,-0.25036 -4.02979,-0.40074 -6.47742,-0.43273 l 0,-6.15747 7.71963,0 c -0.10479,2.41007 -0.54472,4.64013 -1.24222,6.59023 m -22.09344,-8.40672 c 0.14797,-2.91636 1.09023,-5.61195 2.67239,-7.84681 0.21757,0.14957 0.43674,0.29195 0.7031,0.40154 0.54391,0.22316 1.3102,0.37594 2.09408,0.53751 -0.6775,2.09409 -1.08864,4.42253 -1.15823,6.90776 l -4.31134,0 z m 6.12067,0 c 0.0728,-2.40444 0.48233,-4.6361 1.14623,-6.6006 1.85811,0.25676 4.06818,0.41993 6.5414,0.45353 l 0,6.14707 -7.68763,0 z m 9.49536,0 0,-6.14707 c 2.49562,-0.0328 4.72248,-0.19357 6.5926,-0.45353 0.66469,1.9645 1.07423,4.19616 1.14702,6.6006 l -7.73962,0 z m 9.53935,0 c -0.0712,-2.48523 -0.47033,-4.81367 -1.14783,-6.90776 0.77988,-0.15997 1.55017,-0.31595 2.09249,-0.53751 0.26556,-0.10879 0.47752,-0.25517 0.69429,-0.40154 1.58216,2.23486 2.53481,4.93045 2.68279,7.84681 l -4.32174,0 z m -11.34708,-7.9636 c -2.22366,-0.032 -4.18576,-0.16717 -5.86791,-0.37994 0.25437,-0.55591 0.50393,-1.11823 0.79908,-1.60536 1.39739,-2.30605 3.17632,-3.67624 5.06883,-4.03458 l 0,6.01988 z m 1.80773,0 0,-6.02948 c 1.90931,0.34315 3.71223,1.71894 5.12082,4.04418 0.29595,0.48633 0.53512,1.04945 0.78948,1.60536 -1.69414,0.21357 -3.67384,0.35035 -5.9103,0.37994 m -9.53775,-0.6543 c -0.83268,-0.16237 -1.60376,-0.33355 -2.0293,-0.50712 -0.12718,-0.052 -0.15357,-0.0824 -0.23116,-0.12718 1.3318,-1.46618 2.93315,-2.6564 4.75288,-3.49547 -0.48953,0.56791 -0.95426,1.17902 -1.36699,1.85892 -0.42474,0.69909 -0.78389,1.46698 -1.12543,2.27085 m 17.32057,0 c -0.34155,-0.80387 -0.70309,-1.57176 -1.12703,-2.27085 -0.41034,-0.6799 -0.87747,-1.29101 -1.3654,-1.85892 1.81813,0.83907 3.40989,2.02929 4.74248,3.49547 -0.0784,0.044 -0.0992,0.0776 -0.22156,0.12718 -0.42394,0.17357 -1.19742,0.34475 -2.02849,0.50712" />
      <path
         inkscape:connector-curvature="0"
         style="fill:#eeeeec;fill-opacity:1;fill-rule:nonzero;stroke:none"
         id="path87"
         d="m 659.64317,627.61004 c -11.15031,0 -20.59688,7.10533 -24.4059,17.01982 l -6.54381,0 0,6.20626 8.65629,0 c 1.38859,0.012 2.6156,-0.90466 3.00114,-2.24206 2.40684,-8.50911 10.10407,-14.77776 19.29228,-14.77776 9.18821,0 16.90383,6.24786 19.38346,14.77776 0.38394,1.3262 1.59416,2.23966 2.96915,2.24206 l 8.59709,0 0,-6.20626 -6.45262,0 c -3.86821,-9.91449 -13.33877,-17.01982 -24.49708,-17.01982 m -30.94971,29.80029 0,6.20546 6.51341,0 c 3.80343,9.92889 13.27639,17.05181 24.4363,17.05181 11.16391,0 20.63207,-7.12932 24.49708,-17.05181 l 6.45262,0 0,-6.20546 -8.59709,0 c -1.37499,10e-4 -2.58521,0.91586 -2.96915,2.24286 -2.47963,8.5299 -10.19525,14.80815 -19.38346,14.80815 -9.18821,0 -16.88544,-6.26865 -19.29228,-14.77696 -0.37434,-1.35179 -1.60375,-2.28205 -3.00114,-2.27405 l -8.65629,0 z" />
      <text
         sodipodi:linespacing="125%"
         id="text2996"
         y="708.12433"
         x="660.60699"
         style="font-size:20.29926109px;font-style:normal;font-variant:normal;font-weight:600;font-stretch:normal;text-align:center;line-height:125%;letter-spacing:0px;word-spacing:0px;writing-mode:lr-tb;text-anchor:middle;fill:#eeeeec;fill-opacity:1;stroke:none;font-family:URW Gothic L;-inkscape-font-specification:URW Gothic L Semi-Bold"
         xml:space="preserve"><tspan
           y="708.12433"
           x="660.60699"
           id="tspan2998"
           sodipodi:role="line">VIDHANCE</tspan></text>
    </g>
  </g>
</svg>
