<?xml version="1.0" encoding="UTF-8" standalone="no"?>
<!-- Created with Inkscape (http://www.inkscape.org/) -->

<svg
   xmlns:dc="http://purl.org/dc/elements/1.1/"
   xmlns:cc="http://creativecommons.org/ns#"
   xmlns:rdf="http://www.w3.org/1999/02/22-rdf-syntax-ns#"
   xmlns:svg="http://www.w3.org/2000/svg"
   xmlns="http://www.w3.org/2000/svg"
   xmlns:sodipodi="http://sodipodi.sourceforge.net/DTD/sodipodi-0.dtd"
   xmlns:inkscape="http://www.inkscape.org/namespaces/inkscape"
   width="864.04785"
   height="645.47913"
   id="svg4379"
   version="1.1"
   inkscape:version="0.48.4 r9939"
   sodipodi:docname="cancelsUnintendedMotion.svg">
  <defs
     id="defs3" />
  <sodipodi:namedview
     inkscape:document-units="mm"
     id="base"
     pagecolor="#ffffff"
     bordercolor="#666666"
     borderopacity="1.0"
     inkscape:pageopacity="0.0"
     inkscape:pageshadow="2"
     inkscape:zoom="1.0076756"
     inkscape:cx="409.66824"
     inkscape:cy="208.03349"
     inkscape:current-layer="layer1"
     showgrid="false"
     units="mm"
     fit-margin-top="20"
     fit-margin-left="20"
     fit-margin-right="20"
     fit-margin-bottom="20"
     inkscape:window-width="1920"
     inkscape:window-height="1176"
     inkscape:window-x="1920"
     inkscape:window-y="24"
     inkscape:window-maximized="1"
     inkscape:snap-bbox="true"
     inkscape:object-nodes="true" />
  <metadata
     id="metadata4">
    <rdf:RDF>
      <cc:Work
         rdf:about="">
        <dc:format>image/svg+xml</dc:format>
        <dc:type
           rdf:resource="http://purl.org/dc/dcmitype/StillImage" />
        <dc:title />
      </cc:Work>
    </rdf:RDF>
  </metadata>
  <g
     inkscape:label="Layer 1"
     inkscape:groupmode="layer"
     id="layer1"
     transform="translate(87.923228,416.09171)">
    <path
       id="path5222-5"
       style="fill:none;stroke:#000000;stroke-width:1.96517467px"
       d="m 689.63878,130.0114 0,7.36941 -671.776373,0 0.01,-475.23675 7.3762,0"
       inkscape:connector-curvature="0"
       sodipodi:nodetypes="ccccc" />
    <text
       id="text5228-7"
       font-size="10px"
       y="-331.18829"
       x="13.440784"
       style="font-size:21.22335815px;text-anchor:end;fill:#000000;stroke:none;font-family:Myriad Pro"
       transform="scale(0.99997501,1.000025)">100</text>
    <text
       id="text5230-0"
       font-size="10px"
       y="144.03673"
       x="12.196646"
       style="font-size:21.22335815px;text-anchor:end;fill:#000000;stroke:none;font-family:Myriad Pro"
       transform="scale(0.99997501,1.000025)">0</text>
    <text
       id="text5232-9"
       font-size="10px"
       y="158.28387"
       x="17.504068"
       style="font-size:21.22335815px;text-anchor:middle;fill:#000000;stroke:none;font-family:Myriad Pro"
       transform="scale(0.99997501,1.000025)">0</text>
    <text
       id="text5234-0"
       font-size="10px"
       y="158.28387"
       x="689.68042"
       style="font-size:21.22335815px;text-anchor:middle;fill:#000000;stroke:none;font-family:Myriad Pro"
       transform="scale(0.99997501,1.000025)">350</text>
    <g
       id="g4531"
       transform="matrix(0.72201037,0,0,0.72201037,-132.80993,-576.94015)">
      <text
         xml:space="preserve"
         style="font-size:39.66211319px;font-style:normal;font-variant:normal;font-weight:normal;font-stretch:normal;text-align:center;line-height:100%;letter-spacing:0px;word-spacing:0px;text-anchor:middle;fill:#555753;fill-opacity:1;stroke:none;display:inline;font-family:Myriad Pro;-inkscape-font-specification:Myriad Pro"
         x="907.04034"
         y="767.12988"
         id="text6751-1"
         sodipodi:linespacing="100%"><tspan
           id="tspan6753-80"
           sodipodi:role="line"
           x="907.04034"
           y="767.12988"
           style="font-size:32px;text-align:start;line-height:100%;text-anchor:start;fill:#555753;fill-opacity:1">intended motion</tspan></text>
      <text
         sodipodi:linespacing="100%"
         id="text6755-7"
         y="803.12988"
         x="907.04034"
         style="font-size:39.66211319px;font-style:normal;font-variant:normal;font-weight:normal;font-stretch:normal;text-align:center;line-height:100%;letter-spacing:0px;word-spacing:0px;text-anchor:middle;fill:#555753;fill-opacity:1;stroke:none;display:inline;font-family:Myriad Pro;-inkscape-font-specification:Myriad Pro"
         xml:space="preserve"><tspan
           style="font-size:32px;text-align:start;line-height:100%;text-anchor:start;fill:#555753;fill-opacity:1"
           y="803.12988"
           x="907.04034"
           sodipodi:role="line"
           id="tspan6757-1">original motion</tspan></text>
      <rect
         style="fill:#a40000;stroke:none"
         id="rect6761-0"
         width="13.919136"
         height="13.919136"
         x="881.28156"
         y="750.89832" />
      <rect
         y="786.98633"
         x="881.28156"
         height="13.919136"
         width="13.919136"
         id="rect6763-8"
         style="fill:#062747;stroke:none;opacity:0.6" />
    </g>
    <g
       id="g4545"
       transform="translate(-2.0203003,-820.24386)">
      <g
         id="g4912"
         style="display:inline"
         transform="matrix(0.71906477,0,0,0.71906477,692.43743,1079.8294)">
        <path
           sodipodi:nodetypes="cccccc"
           inkscape:connector-curvature="0"
           id="path4914"
           d="m -225.588,-790.13409 -547.38677,0 0,81.15808 547.38677,0 9.32154,-40.57893 z"
           style="fill:#ffffff;fill-opacity:1;stroke:#2e3436;stroke-width:0.75941211" />
        <text
           sodipodi:linespacing="100%"
           id="text4916"
           y="-755.16943"
           x="-758.08313"
           style="font-size:32.01228714px;font-style:normal;font-variant:normal;font-weight:normal;font-stretch:normal;text-align:start;line-height:100%;letter-spacing:0px;word-spacing:0px;writing-mode:lr-tb;text-anchor:start;fill:#555753;fill-opacity:1;stroke:none;display:inline;font-family:Myriad Pro;-inkscape-font-specification:Myriad Pro"
           xml:space="preserve"><tspan
             sodipodi:role="line"
             x="-758.08313"
             y="-755.16943"
             id="tspan4918">Smooth intended motion preserved by </tspan><tspan
             sodipodi:role="line"
             x="-758.08313"
             y="-723.15717"
             id="tspan4920">Vidhance's optical flow stabilization</tspan></text>
      </g>
    </g>
    <g
       id="g4539"
       transform="translate(52.527932,-763.67532)">
      <path
         sodipodi:nodetypes="cccccc"
         inkscape:connector-curvature="0"
         id="path4924"
         d="m 273.08664,818.86571 290.81826,0 0,58.39942 -290.81826,0 -6.7095,-29.19964 z"
         style="fill:#ffffff;fill-opacity:1;stroke:#2e3436;stroke-width:0.54606652" />
      <text
         sodipodi:linespacing="100%"
         id="text4926"
         y="844.00757"
         x="279.13315"
         style="font-size:23.01890755px;font-style:normal;font-variant:normal;font-weight:normal;font-stretch:normal;text-align:start;line-height:100%;letter-spacing:0px;word-spacing:0px;writing-mode:lr-tb;text-anchor:start;fill:#555753;fill-opacity:1;stroke:none;display:inline;font-family:Myriad Pro;-inkscape-font-specification:Myriad Pro"
         xml:space="preserve"><tspan
           id="tspan4928"
           sodipodi:role="line"
           x="279.13315"
           y="844.00757">Unintended motion left by</tspan><tspan
           id="tspan4930"
           sodipodi:role="line"
           x="279.13315"
           y="867.02649">1st generation (EIS) stabilizer</tspan></text>
    </g>
    <path
       style="fill:none;stroke:#062747;stroke-width:1.50000000000000000;opacity:0.6"
       inkscape:connector-curvature="0"
       d="m 593.60674,-338.21708 h 0 0 0 0 0 0 0 0 0 l 5.61792,9.35011 2.86148,13.39923 -0.68912,19.40212 1.41036,22.83092 h 0 l 2.20692,4.34255 -2.41732,26.71426 -6.85756,21.17426 -7.25696,25.27653 h 0 l -15.13596,29.48426 -19.11644,25.77486 -17.9286,17.9497 -16.54624,11.332 -12.10136,2.60537 -6.61196,-10.7673 -4.58912,-26.1241 -4.79532,-27.30107 -5.43472,-19.35945 -8.25908,-21.52029 -7.52504,-21.58176 -5.99412,-17.74975 h 0 l -10.18552,12.61404 h 0 l -16.05252,15.34201 -6.8418,19.75113 2.51612,19.19372 -0.44392,10.32226 -1.146,26.31409 0.915,22.42048 -4.41876,16.20705 -5.34312,20.32745 0.0244,10.02579 1.00816,4.384 5.43,5.59587 2.4238,-6.28814 -2.01588,-14.68734 h 0 0 0 0 0 l -2.14724,-15.88541 h 0 0 0 l 5.60392,-16.66108 4.77408,18.3018 h 0 l -8.5274,8.06176 -10.21428,28.79654 -8.41848,29.24797 -9.61792,16.95319 h 0 L 390.9173,13.08058 378.35374,35.7569 363.59818,48.61635 349.28766,43.22897 337.6927,29.88804 329.5191,4.47411 l -9.0214,-20.70114 -11.36984,-6.92481 -13.1988,6.73061 -13.57072,20.93642 -13.06452,8.68714 -13.88028,-1.29265 -12.22964,-2.60415 -10.7408,2.35865 -8.85424,6.66676 -4.28904,9.86077 -3.63928,8.7583 0.24016,10.49851 1.85436,4.60152 -0.93112,-5.03133 -1.11416,-5.07056 0.71496,3.46861 -0.42672,-1.94863 -0.72816,-12.66621 3.97108,-14.36834 4.40456,-5.84663 0.78064,-5.68105 0.80032,-20.91559 h 0 0 l 14.67808,-18.5445 7.2268,-16.61662 3.11652,-10.13927 4.12136,-17.35253 8.6608,-18.47578 10.03676,-21.41859 9.67616,-8.52515 8.89928,10.16702 0.62948,10.79455 -4.14888,8.74169 -3.17364,13.93161 -2.40856,9.46557 -1.19144,-5.15979 0.0304,-4.21209 2.85928,3.44774 0.90516,-4.09777 -4.3374,-3.77224 -6.43768,7.95228 -7.14252,1.89207 -5.95676,-3.63835 -3.01632,-11.89898 3.8856,-23.54673 1.89148,-22.69007 -4.33744,-36.67497 h 0 l 0.57216,1.73239 h 0 0 l -4.34184,14.52741 -3.87956,21.64811 -2.76864,22.85534 h 0 l 2.69704,58.6053 h 0 l 2.04444,30.18229 4.08932,26.52581 6.40984,32.28514 2.83312,30.4364 -0.57612,19.67102 -0.7012,2.95807 4.63856,0.0438 12.34968,0.89844 7.45208,-3.27466 3.6834,2.98564 3.45504,3.26972 3.6484,-5.00003 1.55684,-16.2776 1.64748,-11.18568 3.13128,-3.44095 4.5522,-9.11807 4.9422,-7.45534 6.70908,2.98561 5.0204,-0.0641 1.99324,-8.6217 3.97824,-13.09568 8.75916,-15.0565 12.45564,-22.66143 13.29928,-27.42764 11.73452,-23.79192 9.0974,-11.1496 10.98688,5.60781 7.62604,14.45316 4.47552,18.3029 4.57556,25.65484 5.6628,17.36399 5.83188,-2.01449 8.40788,-11.29992 10.47688,-14.41382 8.54544,-4.27692 5.2748,2.63307 3.24544,3.5161 -0.11448,6.38488 -4.0116,5.48888 -4.81636,6.70635 -6.53192,-0.70558 -7.40748,-9.23918 -6.548,-15.02961 -6.21284,-10.49844 -10.4956,-11.95328 h 0 l -12.7808,-4.88897 -9.47696,-10.08757 -8.13996,-11.80624 -6.39156,-6.8562 -6.41536,-2.80823 -6.97948,-5.17563 -7.07624,-12.02101 -7.10716,-1.79766 -9.42648,-2.06314 h 0 l -1.97492,12.92937 -0.6466,11.24627 -0.24728,8.01773 -0.8254,4.70109 -2.61848,9.0214 -2.99796,11.00077 -3.16084,12.38772 -0.99716,9.99155 0.45256,11.63909 -1.87992,11.99617 -3.05856,13.5997 0.44268,8.60139 -1.367,0.20054 -1.15648,-6.38037 -0.69256,-8.66151 2.32132,-13.78118 9.1708,-28.18468 h 0 l 9.52728,-14.8406 5.42568,-12.91058 5.15864,-19.40982 6.64304,-24.03251 5.63956,-22.29057 h 0 l 12.48084,-27.24293 11.14364,-22.02687 8.2134,-2.60422 4.57348,11.41263 -0.58168,19.79574 -6.69356,14.63261 -8.87816,11.89877 -5.92148,20.97742 -5.83928,12.16529 -3.4344,11.25829 -3.02496,13.54259 -5.08272,7.78523 -8.3156,10.52379 -9.03084,16.31192 -12.50036,12.50165 -11.6364,0.55326 -6.93756,-9.38987 -6.05472,-16.06357 -5.89324,-16.32406 -8.04648,-25.90693 -5.85804,-17.82215 -2.85968,-1.75073 -5.15244,-15.99665 h 0 l -2.95156,1.73112 -7.00392,-9.61196 -6.44656,-8.28726 -3.9414,-1.85668 -3.19504,4.19041 -1.08332,6.99614 1.82124,9.8785 3.45388,9.26686 4.31328,9.00026 2.058,14.54533 -0.48404,15.3569 -0.54608,9.86648 -0.0578,9.58246 -0.24308,5.15119 2.60452,0.60621 4.95328,6.4699 -0.31668,10.31043 1.43304,12.50769 2.00152,4.16362 -0.20204,-4.67565 4.40736,-10.2985 h 0 l 9.08052,-9.15407 4.22256,-12.61541 7.03312,-18.46404 2.94796,-27.10591 0.77484,-24.09225 3.98748,-17.11071 3.77208,-7.8698 2.9858,0.58229 4.92272,6.31082 2.1836,8.39476 -0.47988,10.76039 0.29004,14.23269 -0.29212,11.2623 -1.93064,-1.27363 -1.36008,1.63383 -0.42936,7.12355 -2.793,4.32777 -6.32772,7.37546 -7.47072,5.32779 -6.2536,-0.64916 -6.41624,-6.64311 -6.012,-4.29963 -4.71828,-5.25078 -6.14824,-8.66242 -11.69252,-5.50817 -11.2728,-0.68361 -9.87912,-10.11267 -10.98708,-13.37093 -7.75728,-3.22381 -5.57468,-0.17865 -7.51876,-4.06695 -8.6166,4.85227 -7.97472,6.11298 -6.67416,5.65032 -2.10144,2.71394 -0.558,0.0672 1.06,4.64502 1.50936,6.62781 0.5588,8.054 0.81684,13.31111 1.97976,13.65514 3.72476,8.14866 6.47272,6.68712 5.41032,12.68383 2.89624,14.86082 -0.24772,8.07218 0.16296,5.04436 2.25492,2.75293 7.2138,-7.81033 9.68244,-11.47412 11.16276,-6.117 7.3206,-3.59185 3.49252,-8.82905 2.67512,-13.50276 1.6764,-14.3868 2.1022,-26.00033 3.61244,-27.54819 6.53508,-15.85909 5.75904,-0.96417 -0.36412,10.29861 -5.18008,22.64043 -8.48768,25.92413 -11.43176,31.85359 -5.8566,20.26227 -0.57372,10.86386 1.49068,8.72311 -0.8188,10.33753 -2.08872,11.43934 -4.24716,11.73292 -4.9584,5.44462 -4.49288,-1.31896 -4.18328,-6.53749 -5.23364,-8.87693 -3.35884,-2.70688 -2.955,0.69418 -7.72056,-7.51601 -8.65376,-14.46787 -6.24312,-9.66469 -6.6846,-17.1365 -3.50576,-26.92258 -0.35288,-16.46705 -2.131,-5.4498 -5.38796,-3.0057 -8.24932,4.69608 -4.82748,11.1141 -3.08396,10.423 -1.46036,8.13223 1.34812,8.02278 1.47872,3.15608 -0.46148,5.2782 -0.91108,10.88031 -3.06884,9.62394 -0.24508,5.62541 2.12868,1.582 4.20264,-1.8107 4.7906,1.24469 3.07356,6.94688 2.50992,6.44849 2.5664,4.27717 3.40472,0.0853 4.2896,-4.33849 7.01848,-18.46432 12.40052,-13.71923 8.25688,-15.94477 2.728,-15.70544 0.0124,-11.78854 -2.34916,-11.41566 0.39324,-15.49066 1.85764,-15.63518 6.20876,-7.88838 4.02224,1.08576 0.66832,9.88329 -2.99048,14.47602 -3.80932,16.74204 -1.64176,11.88496 1.07468,5.27283 0.48436,7.14337 -1.0414,10.29488 -1.02016,11.20906 -4.34744,14.26732 -5.1886,9.14804 -1.4308,4.8251 -0.64776,2.57107 -3.87732,6.45678 -3.50692,9.7296 -5.04756,2.77777 -5.78916,6.27522 -6.53288,0.16763 -4.04524,-4.78494 -6.43388,-14.78963 -6.32384,-10.84071 -0.73888,-11.73541 0.60596,-17.17659 -2.13476,-19.72308 -4.4566,-6.72391 -9.049,-3.42499 -10.42596,-1.55572 -6.00192,5.83416 -3.30592,4.91849 -4.5584,9.98466 -5.01908,17.52764 -8.58596,12.75568 -9.203558,12.33671 -6.8606,13.49826 -2.84152,13.8879 0.107,6.56517 0.44856,1.58048 1.04612,6.54055 2.11144,7.43018 0.924,9.08238 2.14304,6.96062 4.36224,2.65801 5.6804,-7.57177 8.452078,-4.98055 7.60348,-1.70755 1.55212,-5.42151 3.0768,-9.45923 5.70456,-11.33847 7.82112,-15.53622 h 0 l 11.12032,-9.16955 10.59724,-3.21081 6.70204,4.84153 4.27016,7.02311 2.89464,6.75206 3.51044,6.31906 3.93764,9.79094 0.65316,12.31048 -1.97472,11.7147 -4.07368,13.96125 -7.31096,15.10395 -8.14704,5.23802 -8.22056,-2.27586 -8.056,-4.82511 -7.5552,-14.20059 -8.079,-18.02528 -6.1554,-19.01389 -4.76856,-5.6345 -4.56008,2.39576 -7.16812,1.40209 -5.243518,-2.26779 -3.90704,-14.8177 -4.22172,-10.69363 -3.39916,4.41448 -4.62768,3.45028 -3.44356,8.27557 -0.71528,13.65529 1.6672,7.44488 -1.61764,1.74507 -4.05876,3.53422 -5.0274,4.40538 -3.50604,8.38393 -2.53764,7.45324 -1.76876,-0.24104 -1.0822,-0.71684 -1.6842,1.65115 -2.45596,0.12646 -1.28636,-1.03213 -1.43704,-4.38607 -0.14248,-14.92374 3.95712,-13.05418 6.24836,-4.48941 4.01436,-8.25336 3.45868,-11.55824 5.14144,-5.5771 5.0884,-10.02131 3.7632,-17.28452 4.53884,-13.91963 8.22004,-2.63002 7.409118,1.47997 4.37732,11.90535 1.76232,30.52232 h 0 l -5.2838,1.60627 -2.14032,12.00907 -0.13996,11.27096 1.21148,1.36573 3.11904,1.86088 0.5712,6.09699 -3.30552,5.63889 -4.087958,10.63876 -4.66988,5.15163 -3.76268,-0.44127 -2.44504,-9.27096 -1.68564,-17.20311 -2.61924,-17.62605 -3.46392,-13.10389 -3.56572,-12.88313 -4.47416,-10.51299 -3.56136,0.95072 -4.9322,-4.93936 -5.32476,0.6352 -2.40092,5.19223 -3.60824,-4.42467 -5.68896,6.06492 -3.7728,5.03892 -1.5798,9.38562 0.67632,7.97522 -0.23428,10.15306 0.99132,9.27553 2.2456,-3.0708 2.02736,1.24922 2.28764,5.22654 2.0984,-0.9822 2.54436,-2.52438 4.109,1.19664 4.76436,-2.35161 5.02876,-5.79092 4.4626,-4.75912 6.13212,0.0879 4.6156,-1.6376 2.35096,-4.11123 2.79108,-6.37203 4.08348,-6.60847 5.34816,0.73421 2.833198,7.29285 -0.57424,-0.47499 -2.384758,0.29981 -0.714,-3.24687 0.84304,-8.53041 1.85852,-10.31884 5.433958,-8.01695 6.85816,-9.59422 6.41488,-1.84932 4.59764,5.02735 3.69948,9.71767 2.44028,9.02361 2.48116,13.2793 4.75356,16.96774 3.09108,11.80504 -0.0693,12.11625 -0.27636,13.96261 0.92788,18.37686 -1.44384,8.22374 -2.44284,0.84638 0.29556,-6.65234 0.78416,-7.7933 -3.47236,-10.37428 -4.75272,-5.10367 -5.13084,-1.21813 -6.55284,-6.91433 -7.64188,0.51001 -6.40364,-0.72777 -5.955718,-3.81194 -6.2958,-8.96749 -5.30356,-9.84504 -1.8906,-9.33911 -2.24532,0.9539 -3.88596,6.09882 -6.04,10.78311 -5.06836,6.18547 -4.009,1.69649 -5.14208,2.84187 -2.9986,8.26492 1.38876,6.3027 0.67428,0.44027 1.25844,2.50809 1.27648,-0.55062 -1.12444,-3.35749 -2.9046,2.32881 -0.96444,3.42764 1.37424,2.61047 1.63936,3.08468 1.665,3.16815 3.04228,4.56482 0.6382,3.95722 -0.2684,2.93351 -0.74372,-0.82568 1.3418,0.46464 6.36752,5.24634 7.1112,1.7877 5.573,0.21913 4.0196,6.63907 1.05432,-1.1664 3.23556,-5.36134 3.60004,-2.8686 3.66944,-3.53187 6.998758,-7.46277 8.35064,-5.58576 6.88308,-4.20349 3.86128,0.62314 3.0366,4.08062 1.52048,0.84497 2.46092,-13.26925 5.41864,-4.6282 5.07956,-3.81799 2.13172,-7.00947 1.36056,0.28095 1.1634,5.24961 -2.89064,-0.97189 -3.20952,2.37825 -5.1112,-3.96058 -5.00532,-0.67605 -3.80648,-4.09614 -4.25092,-2.62376 -3.93864,1.87206 -5.79528,-4.99257 -8.2594,4.25628 -6.758558,5.39979 -4.96924,8.14098 -6.41852,-5.71215 -7.25372,2.76006 -4.01528,-1.5732 -6.05864,-4.63206 -5.27184,-2.3999 -1.91464,1.35905 -1.37016,0.77204 -0.3612,2.03113 0.98164,0.35742 3.25016,3.44139 3.35024,2.54246 0.81388,5.56552 2.76168,10.4607 3.31664,6.46892 2.61544,7.48905 4.33968,7.62355 6.79084,10.09735 5.31616,8.51642 3.34456,4.98438 2.16752,7.11186 2.602118,5.71087 4.26992,0.30213 2.64108,-4.84549 2.1448,-1.65519 6.8222,8.10612 4.79136,-2.50943 0.21988,-10.35482 2.55232,2.01682 1.46516,-3.45346 0.2712,-21.75284 0.22052,-22.91699 1.24992,-7.71668 2.90104,-8.11386 2.66196,-0.41086 2.80884,8.56373 1.45836,4.95045 -1.77428,4.74716 -1.5142,7.85514 0.0924,4.94425 0.45276,-2.6782 0.105,-4.99154 -0.9052,3.93304 -2.22096,11.47826 -4.17932,-1.80133 -5.04212,2.15537 -5.79292,0.83432 -2.89372,-7.1974 0.0724,-4.76957 0.17316,4.66899 -1.92528,4.94565 -1.564,4.84827 -0.24672,2.44872 0.37944,-0.50597 -1.22688,-5.26982 0.46408,-4.08884 -0.88324,-0.95878 -3.0952,-4.53121 -1.7324,-3.72396 0.61644,-1.06238 2.85084,-3.80183 3.03684,-16.1869 3.94212,-6.01596 1.7658,-0.34784 -2.0154,3.00561 -3.07072,6.00255 -2.98368,7.62276 0.36016,2.23626 2.2978,2.48401 3.67112,4.37366 2.63068,2.19048 1.95812,2.19085 0.16256,0.31131 0.24928,-3.93448 4.62524,-2.31971 6.29684,-8.52655 9.14584,-7.18505 h 0 l 8.73336,-9.768 5.68468,-16.64733 4.24884,-12.17645 4.61212,-5.52689 4.60292,-10.31112 7.94304,-11.38021 10.5298,-8.53149 11.17148,-2.57275 7.8712,-4.01353 4.16716,-3.44037 0.838,0.0346 1.9702,3.70132 2.3664,0.17348 -0.25108,5.25252 -2.5644,10.9224 -4.35812,9.82377 -8.04396,7.64337 -6.24148,6.89868 -3.68384,4.70718 -3.62912,2.57822 -5.523,0.27226 -6.62516,3.22391 -6.39304,5.43336 -6.68136,3.18859 -4.70504,-1.40655 -1.7552,-5.11147 0.17944,-6.44429 -1.51316,-17.02683 -0.45308,-2.51013 h 0 0 l -8.56788,6.19989 -1.825,14.22859 -1.75416,4.59945 -2.87268,8.03042 -1.55988,4.40771 -2.44576,-2.50704 -2.30896,-0.59343 -0.28484,2.10843 1.1552,1.84667 1.19784,2.51098 0.68692,5.08104 1.38104,5.60966 0.7032,3.98411 -1.15132,4.30322 h 0 0 0 0 0 l -0.87456,0.41942 0.53624,3.03503 1.83604,-4.62158 3.30748,-5.59222 h 0 0 0 l 7.1024,-1.11813 h 0 0 l -4.8792,6.26707 -4.422,10.4065 -1.77544,3.59894 0.59724,-4.26679 0.46192,-2.08325 -1.6672,4.0712 -2.54996,2.70505 -2.13304,3.79329 -2.30664,2.33357 -1.58396,-0.59809 -0.1182,-3.85603 -0.75904,-7.10416 -1.64956,-5.19476 -2.18044,-1.93666 -2.50296,-3.02918 -1.90368,-5.94776 1.10008,-5.84564 3.759,-8.23338 2.35304,-12.06962 h 0 l -6.26344,1.31588 -6.62792,0.7267 -2.40272,7.98701 1.26684,6.69108 1.18484,2.25441 0.57476,-0.99019 0.91232,3.35367 -0.7102,2.91863 -2.52452,4.96987 -1.70332,9.28096 -1.64136,13.01943 -1.89912,7.79442 -0.14332,4.47117 3.23304,1.53855 1.17276,1.5087 -1.88076,-1.25236 -0.0798,-1.75532 3.11416,-13.03395 7.03156,-12.16538 9.99672,-8.82857 5.95476,-6.91673 1.07732,-6.408 -0.6214,-1.32246 1.18524,-5.41773 3.104,-10.84824 5.50788,-5.22578 2.25764,0.96283 1.02888,3.84286 -0.19184,13.04238 -1.12456,22.55451 -1.58456,21.19846 -3.00372,9.80894 -1.7264,5.3024 1.30012,3.31879 4.3162,-1.97679 3.87504,-5.33473 1.39408,-7.10749 0.84628,-1.80295 0.0987,-5.03067 -1.84632,-5.15709 -4.5908,-2.16945 -4.21744,-0.41025 -2.293,-1.00155 -3.97636,-5.54032 -6.208,-5.89751 -6.43148,-4.2036 -7.6674,-0.75685 -7.08612,-4.64048 -3.0852,-5.69952 0.39668,-9.32958 0.83904,-7.6581 -2.472,0.39504 -6.875118,-1.0844 -6.5104,2.21661 -2.9484,3.40405 0.07036,4.10234 0.16704,4.47681 0.41088,3.77819 0.94784,-1.239 0.34176,-1.6789 1.62496,4.44337 2.82936,2.14313 1.96696,1.79225 2.27608,1.82591 3.55592,0.30062 3.577158,-1.44017 1.65792,-1.84885 -0.0168,-0.33542 0.0809,-4.61638 1.34328,-5.62153 5.09172,-7.83658 6.25068,-6.56631 6.60944,2.23739 4.49996,8.61436 3.09772,-4.18491 4.5718,-3.85965 3.93436,-4.99501 2.083,-6.29392 3.455,-7.27606 4.18468,-5.67477 3.80428,-6.6262 4.55616,4.61596 3.26452,3.40316 -1.44028,2.10703 0.107,4.87283 2.07344,5.55283 3.31988,1.04204 1.24392,4.63912 -1.61048,4.79516 -1.61448,4.07176 -0.12076,1.68747 -0.32192,-0.74624 -0.7712,2.12923 -1.54056,0.20649 -2.17992,-1.36271 -1.91436,-0.64252 -3.5616,-1.13426 -4.31404,1.913 -3.34916,0.20984 -4.46516,-0.69858 -4.60224,-2.0602 -2.36408,-7.43171 0.14132,-11.66073 -0.15904,-7.84946 1.32908,-6.23687 -0.33884,-6.63624 -5.59764,-5.72124 -6.24992,1.75779 -4.32412,-0.0426 -4.284,5.00988 -0.30848,9.63368 1.80808,3.74101 0.2996,9.50964 -1.22916,9.26217 -1.19928,9.51696 -1.43484,10.695 -1.57164,11.09943 -0.28728,4.10209 1.3714,5.71627 0.31208,4.12744 -0.53404,2.53728 0.26272,2.77082 -1.21728,-0.29246 0.24192,4.50823 4.06068,4.5251 2.14576,4.23263 -0.94648,5.01735 0.65616,0.15699 2.63456,-7.00666 1.27468,-15.94695 -0.15216,-7.28408 0.546,-12.24023 1.45092,-14.42353 2.31228,-7.53244 0.57804,-0.31236 -1.19236,-0.88402 -2.52884,-2.31536 -2.91996,-1.44848 -1.74288,0.21558 0.258,-1.09016 -0.3904,-2.47208 -0.3908,4.21688 -0.34548,5.60542 -1.50096,4.25725 -1.80072,3.5047 -0.808,4.212 0.47556,1.52593 -0.33788,-1.1197 -1.93728,1.88556 -1.82132,3.30445 -2.38404,-3.40347 -3.86168,-5.18971 -1.82448,-0.75265 0.15916,-9.65697 -0.53508,-15.29335 2.25888,-11.5618 v -3.58209 l -6.177758,-1.20459 -7.60536,-4.3551 -6.51128,-3.13842 -4.36548,0.93889 -0.33936,1.34603 3.11136,-7.01612 2.64012,-7.89941 2.08644,-4.70693 2.0406,-4.69806 0.50724,1.36314 0.65616,5.87315 1.9574,5.40152 1.80864,6.39367 1.85188,5.89102 2.50436,3.24119 1.741,7.78177 0.53036,6.47718 0.34672,-0.83107 2.437118,-5.91477 4.05208,1.15477 3.61872,3.97892 2.59296,4.7053 1.62748,3.36704 2.33656,-1.33694 2.88372,-7.42764 3.94604,-7.54891 5.85036,-7.48422 5.588,-8.99891 5.16096,-6.06471 2.42248,0.89542 -0.9866,2.83307 -1.94136,6.29184 -1.43284,4.86491 -0.40832,6.66851 1.95848,5.85131 4.86064,6.37506 3.35308,5.07057 0.45892,5.48101 -0.1602,7.84115 -0.83896,9.55578 -2.96888,12.12555 -5.47208,11.65707 -5.99276,14.90978 -5.77416,6.81391 -7.13392,4.47351 -4.84584,-1.29429 -1.24792,-13.25934 -1.44408,-19.12176 -2.47756,-13.64781 -2.42888,2.00585 -5.4156,1.88416 -7.589278,5.62266 -5.0232,4.0284 -3.66112,2.49621 -3.26624,3.51791 -2.72148,3.24378 -2.29776,4.44503 -2.1362,4.65797 -0.30176,3.15628 2.23092,3.3712 1.9086,5.90986 0.15736,7.0005 -1.53896,7.19685 -3.53464,6.1928 -4.6876,5.38164 -3.45008,3.08306 -1.60932,1.24993 -1.11048,2.70352 -2.38972,-0.0437 -1.1532,-1.45886 1.01428,-7.3318 1.058,-12.01707 2.50152,-12.00686 7.33864,-10.21705 6.37248,-8.40679 4.8408,-3.31003 4.63332,-2.2232 4.02852,-6.93774 2.79648,-9.66876 1.03028,-9.31118 1.26608,-11.00524 1.75088,-13.48778 2.951158,-11.94706 4.52936,-10.63398 4.23696,-8.68628 3.16156,-6.38178 2.11648,-0.57024 0.28896,2.23875 -0.37392,4.20299 -0.85332,5.97751 -1.39672,5.61039 -0.2374,4.6626 0.0324,7.77568 -1.13212,9.55579 -2.91236,7.61524 -2.34396,7.7286 -1.87864,6.84144 -2.01056,6.11205 -3.470758,1.28738 -4.19904,0.74194 -2.31904,5.58356 -2.06976,3.28164 -1.41644,-0.35339 -1.3606,-1.67427 -1.2558,-1.54426 -0.92024,-4.6835 -0.97468,-4.4675 -1.61168,-3.10865 -3.08172,-2.93855 -1.5282,-3.4962 0.6006,-0.9713 1.31608,1.29815 0.34368,2.77332 -0.38884,4.3722 -0.85224,5.15799 -1.63248,4.85178 -0.92208,2.6055 0.85616,2.92379 1.83636,2.48456 2.82396,5.42561 2.84184,4.83216 1.45624,2.37428 1.18956,5.51365 0.63272,4.39808 0.04516,3.369 0.12228,2.82263 1.23712,0.47093 2.61716,-0.27159 5.21028,2.83923 1.55276,-2.59593 1.154878,-2.23323 2.76624,-2.26524 1.54476,-0.40702 -0.28412,0.50723 0.98784,0.005 2.04464,-0.2929 1.63516,-1.2521 2.86188,-1.90447 1.34432,4.23975 -0.063,5.19798 -2.03344,3.63577 -1.6114,4.54489 -0.76652,5.19934 -0.5252,3.47334 0.70096,2.68797 1.791,2.30145 1.00924,2.88857 -0.36904,1.90513 -1.98576,1.00223 -2.12164,-0.53313 -1.17704,-0.82682 -1.35168,-0.16125 -1.80904,5.22453 -3.466478,4.21299 -4.78128,-0.61779 -4.31864,5.09444 -3.01708,3.7219 -3.71532,-2.31864 -3.34352,-3.2252 -3.0558,-1.32185 -3.18404,-1.78828 -1.66572,-2.4032 -0.25608,2.07085 -0.61896,-0.28383 -2.75732,-5.15607 -2.7358,-0.78789 -1.14448,0.12926 -2.51264,0.44128 -3.12828,2.10355 -2.42632,3.11212 -1.13224,2.43081 -0.8738,-0.81947 1.83412,2.31319 2.4902,-1.81604 3.9416,-2.624 5.3972,-1.39967 7.51908,-4.01952 6.36572,-3.70836 6.58444,-2.30267 8.20932,1.00687 6.394078,-4.75719 6.71472,-1.71187 4.92892,2.76302 1.05412,2.11632 0.96776,-0.85451 2.32448,-0.41498 2.96576,-0.6342 3.80644,-2.29557 2.91216,1.10379 0.51828,0.46792 0.0515,-0.1378 0.90016,-2.34122 1.87036,-2.03512 1.51296,-0.74671 0.7082,0.65908 -0.33188,1.25421 -1.50728,1.01217 -1.20552,1.65774 -2.0456,2.64713 -3.513,2.46433 -2.88528,2.22535 -2.93824,3.47478 -2.70732,3.01739 -1.09176,4.491 -2.39256,4.68213 -3.53996,3.1337 -4.43676,1.38756 -4.2058,1.37956 -1.989198,0.6101 -0.96748,-2.35544 0.04308,-5.55911 1.388998,-2.36348 0.52972,-3.07457 -0.951918,-1.8947 -1.5856,0.29039 -1.10028,1.73677 -0.1114,0.69759 0.40068,-1.918 1.71456,1.13842 2.317758,0.15356 0.4792,0.55747 -0.88736,0.24294 0.32132,-0.79348 0.12944,0.49725 -1.0382,1.19645 0,1.2711 0.42072,2.24101 -1.276198,2.74423 -1.5436,1.96133 -0.88628,-0.32331 -0.37516,-1.67206 -0.54508,-0.26818 0.27964,-0.92878 2.0416,-2.14779 0.863,0.60038 0.10396,1.25762 0.13984,-1.27228 1.995638,-4.18493 2.4908,-3.07059 0.40248,-3.30545 -0.2414,-0.33747 -1.264,-0.53314 0.0104,-4.41657 2.0262,-6.16494 4.48768,-4.49982 1.99552,-1.61875 -0.28036,-0.0948 -2.77808,0.28493 -1.42052,0.22422 -0.20288,0.94399 0.041,0.41326 0.76512,0.67946 0.3784,2.38305 -0.0272,0.0316 -0.28444,-0.35101 -1.134,2.45964 -1.0264,2.43235 -1.77248,-0.73056 -2.4256,0.95931 -0.42828,-0.36307 1.40496,-6.24411 0.2392,0.26629 -0.02,1.03896 1.41792,2.00788 h 0 l -6.511918,7.56926 -7.02764,0.31728 -6.34912,-4.37401 -5.95256,2.09711 -4.9494,2.71216 -3.48052,3.1867 -2.03952,4.35096 -1.49928,0.33811 -2.79104,-5.52885 -1.44376,-6.22936 0.26356,-1.18565 0.55304,1.48445 0.04516,4.78782 0.58928,4.83307 0.87788,0.53171 1.64912,0.20343 0.73556,4.68154 -0.72744,5.03578 0.29964,2.52078 1.972,-1.34276 2.49332,-6.97233 4.60712,-7.99939 7.17928,-3.11733 4.4016,-0.36595 4.18748,3.09056 5.09584,7.29003 3.65508,0.86431 3.166158,-2.66655 2.63836,-5.28124 3.8352,-7.4775 4.729,-8.16049 5.58492,-9.26942 5.72124,-4.50909 5.21808,-0.89985 4.14732,1.11846 0.66356,-1.87128 -1.36928,3.63702 -0.6634,4.22166 -1.29588,1.20573 -0.65132,1.42971 -0.76872,1.28407 -0.022,0.79609 0.18408,0.34876 -0.32396,2.95888 h 0 0 l -4.12336,-1.98408 -4.2114,4.09667 -2.37972,5.27944 -2.29428,1.55515 -2.65828,3.79315 -2.5306,0.73771 -2.29488,-3.17586 h 0 l 1.25664,-1.08404 -1.82376,-2.9918 -4.59396,-1.04977 -4.46544,3.38186 -2.954078,3.22725 -1.12,-1.83043 1.11784,-3.92326 1.98972,-3.92449 0.610278,-2.23861 -1.163718,2.36982 -3.08576,3.2005 -2.57196,2.12909 -0.15236,-0.15869 1.85744,0.5855 1.79024,3.03629 -0.1344,3.88777 -1.10752,5.10363 1.43188,1.41387 2.967718,-5.8362 3.3138,-8.09464 5.6026,-2.53909 5.2248,-0.22327 5.4076,3.80551 2.66312,3.92192 0.87536,4.13059 2.02812,-0.31364 2.37528,-8.06505 2.74932,-9.14632 4.69108,-11.9205 5.37536,-12.24205 5.61312,-7.20114 3.40356,0.11835 1.9676,7.34593 -0.5248,7.95953 -2.47136,6.43785 -0.68304,7.10636 -0.23312,3.16231 -0.23108,3.95351 -0.27824,6.24505 -8.39236,18.66276 h 0 0 l -2.53184,1.0378 -1.529,-3.25366 0.56328,-5.40988 0.0641,-5.18193 -1.317,-1.38051 -1.94252,0.42627 -3.02768,0.15212 -3.68384,0.66861 -2.77704,-1.85651 -0.96072,-4.13405 -0.947,-3.33598 -3.30552,-3.12656 -3.32388,-1.83357 -4.4624,-2.26165 -4.73528,1.70908 -1.53288,2.12392 1.00872,0.82159 0.36224,1.00362 -0.62948,-0.84116 0.50508,3.31619 -0.62644,4.49577 -1.37856,3.77655 0.38368,4.47134 2.4448,0.99819 2.84636,-1.29276 2.53364,-2.26262 1.38388,-0.48749 0.31536,0.80306 -0.105,0.69097 -0.32796,-2.39214 -0.45064,-2.38092 0.44856,2.01771 0.65448,-0.54968 -0.47144,-6.30659 -0.69092,-6.46213 0.35144,-5.16299 1.6194,-7.47399 2.51864,-6.02294 3.07052,-6.78023 2.73324,-7.81587 3.47708,-9.19192 3.74,-5.50733 2.2192,2.15428 1.13568,6.27868 -2.37984,8.18083 -2.7572,3.21314 -0.8778,4.12474 -0.61228,1.10289 0.23764,-0.82605 -0.5056,1.28165 -1.6994,1.77546 -2.59048,1.53249 -2.47556,0.26641 -2.7614,-2.46549 -2.3,-5.29897 -1.8982,-7.77493 -1.10116,-3.46449 -1.42084,-9.19307 -2.73368,-14.42799 h 0 l 0.18764,5.05035 -1.56272,-0.77537 -3.8472,6.80836 -3.534398,3.9901 -4.61268,-0.69533 -5.4436,3.69971 -5.75348,5.22726 -3.40304,4.82003 -2.69744,-0.006 -1.74416,4.14983 -2.05656,6.76174 -3.47264,9.26514 -5.56436,5.17294 -3.64372,7.69546 -0.2418,4.89644 1.82596,-0.30433 2.2048,-0.42109 2.29476,1.13712 2.98692,1.59371 1.07636,-0.70277 -0.18008,-0.31957 0.62632,-1.16847 3.887,-9.4223 5.36352,-15.53014 h 0 l 7.546,-6.18411 3.28652,-1.47793 0.17576,3.02992 -1.54056,1.57672 0.24896,-3.74223 3.45272,-4.78112 4.67892,-3.94297 5.062758,-1.36905 4.10728,2.71653 1.43664,5.99215 -0.39712,6.40014 -1.47524,11.23696 -3.57232,13.1209 -3.247438,6.68288 -0.6764,2.45075 1.13388,3.92457 0.23796,3.73914 -1.10412,3.01796 -1.48624,2.92097 -1.28584,0.42293 -0.7828,0.50471 -1.4222,0.29435 -3.13184,-1.5243 -3.26644,4.1814 -3.94108,2.84251 -5.30976,-0.97318 -2.73828,2.3527 -0.30816,0.16521 -0.75456,-1.99784 -0.6052,-1.51874 0.3656,-5.50851 0.07876,-7.89391 -2.45028,-3.85581 -3.50996,2.03365 -2.30208,-2.08151 -0.084,-2.40148 1.77396,-2.26705 2.2014,-5.29672 1.13044,0.21083 0.16128,0.39351 -0.937,-0.76522 -0.74868,3.11539 1.0386,2.76123 1.81596,0.51192 1.6634,-0.57735 1.38556,-0.80148 1.51852,0.7242 0.23448,0.12381 -0.19844,-1.55246 -0.11612,-1.21763 1.6844,0.41655 2.70888,-3.43723 3.03084,-3.76679 1.67252,-1.3487 1.16688,1.47279 1.61576,-3.94535 2.52168,-6.32049 2.30936,-3.18678 2.92528,-2.62544 4.477638,-5.27354 4.69768,-1.51482 3.5864,1.92789 1.67464,4.02471 -1.22608,1.00713 -2.13016,2.91645 -0.45088,1.71327 0.21644,-0.80931 0.18016,-3.29235 0.2038,0.90129 -0.38836,1.64251 -1.40084,-0.55275 -2.73576,1.76687 -2.28868,3.44115 -2.280478,-1.36291 -3.84888,-4.599 -4.26828,0.98883 -1.72672,0.26581 -2.40376,-3.93999 -3.33448,0.41754 -2.72632,0.4986 -2.29124,-1.31196 -1.44416,-2.71104 -0.57856,-1.58287 -0.66672,-3.22258 -1.5914,-5.5087 -3.05284,-0.89145 -2.32884,0.54007 -0.99328,2.83166 -1.26408,7.72453 -0.4238,6.79092 0.0336,2.03009 0.05356,1.12427 -1.115,2.05042 -1.05764,3.96978 -0.94228,4.93017 -0.6758,5.38596 0.78668,2.03253 0.87748,0.13132 0.99844,-1.62448 0.83308,-2.4147 1.33224,-0.82402 2.71404,-3.1432 2.30776,-9.63088 3.45464,-1.90703 5.10728,3.81731 2.72244,-5.94748 1.77524,-8.85931 1.75024,-2.7418 h 0 l 3.51468,-12.9696 h 0 l 5.52812,-3.58151 h 0 l 0,5.98045 -3.19788,10.11287 -3.69356,7.93159 -2.12448,2.45965 -0.19916,0.053 -0.10856,-1.61679 1.68072,-0.20032 0.47092,-0.81104 -2.05064,-4.99921 -3.00572,8.75647 -4.24424,4.8319 -3.60412,-1.13518 -2.99408,-5.19002 -3.3262,-4.40253 -2.91564,2.95279 -2.20604,4.98379 -3.18424,0.83649 -1.10592,5.57123 -0.19188,1.85827 -1.26608,-2.03091 -0.91372,-0.0333 -1.49664,0.13191 -2.31012,-1.8858 -0.87768,-5.91513 1.34672,-2.47022 -0.34944,-2.50511 -0.35048,-1.77728 1.26564,-3.09335 0.96036,-0.5488 -0.09348,1.89597 0.75748,5.70815 0.62516,5.59909 0.88444,0.34959 2.84768,1.36458 2.31652,-0.14223 1.07144,2.13396 1.59516,1.05386 1.79948,-1.94859 1.52388,3.12178 1.64712,3.04394 0.8482,3.39544 1.82016,3.65299 1.0538,4.22603 1.03684,2.32156 0.47316,-2.46721 0.26016,-3.59649 0.92204,-2.3373 1.49268,-3.51351 2.34568,-8.81968 1.9274,-2.68922 2.42284,-2.16099 2.26128,-2.90718 1.01632,-1.3251 -0.0104,0.53157 -0.67916,-0.0737 -0.79,-0.0444 -0.33656,0.45969 -0.4244,0.51276 -0.63484,1.39405 -1.86604,2.59174 -2.7258,5.57851 -1.84632,3.82634 -1.89296,3.19961 -2.20656,3.89844 -1.37016,2.03244 -1.884,-2.56292 -2.9002,1.00538 -1.7382,-0.0766 -1.75432,-2.48064 -2.38736,-1.05549 -2.40296,0.31252 -1.92284,-0.69399 -1.3436,-0.96237 -1.57868,-2.46275 -0.6094,1.54414 0.08608,-1.01555 -1.57396,-2.61654 -0.40644,1.66187 0.95244,3.23823 0.40208,2.64059 0.1156,-0.22269 0.78804,-1.19334 0.95872,1.20211 -0.0104,1.6112 -0.0148,1.89723 0.92064,2.43631 0.73352,3.7545 0.60808,1.52238 1.03532,-1.11167 2.35136,-0.25557 2.35356,-1.91495 2.13204,-2.04071 1.30556,-2.83077 0.76092,-0.41202 2.37448,-2.8098 2.58676,-4.3938 5.47504,-4.45304 3.58576,1.4312 1.97996,4.51452 -2.21704,2.78854 -2.49536,4.86338 h 0 l 2.58124,-10.25762 3.97096,-5.08221 4.16452,-1.21908 2.23284,-0.0924 1.07276,2.07467 0.30264,4.49497 -1.29204,6.04053 -0.5442,3.48288 -0.18364,1.85319 -1.34904,3.0916 -1.93088,3.94851 -1.02404,1.5149 -1.5204,0.26691 -2.64136,-0.0104 -2.41104,-0.70884 -1.94176,-3.75654 -3.60296,-4.55424 -3.2906,1.19969 -2.67132,0.0709 -2.36176,0.39685 -1.21852,3.74395 -0.40216,-0.35025 -0.05776,-1.75618 -0.83832,0.57137 -1.73016,-0.30621 -2.40732,0.89031 -1.94116,3.38833 -1.35816,2.3957 -0.6886,0.39762 -0.26564,-0.008 -0.14712,0.0704 -0.14596,0.49037 -1.03748,-1.60424 -0.4958,-1.05274 0.31876,0.10451 1.51032,-1.02963 1.89556,-2.01944 2.16868,-1.78761 1.02228,0.40944 0.34912,-0.57524 0.92304,-1.03865 0.68208,-1.76012 1.8746,-3.61999 1.87644,-7.08576 h 0 0 0 l -0.72084,3.69779 -0.8192,1.80412 1.28732,1.06214 h 0 l 5.57244,-7.92157 h 0 l 4.11724,-4.5237 2.03596,1.66859 -0.07664,2.57241 -1.96248,1.35118 -1.26944,2.10364 -0.27952,-0.0104 0.14724,-1.49845 0.05984,1.39827 -0.52364,0.95213 -1.4634,1.13627 -1.70024,1.80156 -0.72672,-0.36619 0.31092,-2.61356 -0.43396,-2.44826 -1.14376,-1.4057 -1.88844,0.53975 -2.12636,2.27335 -1.90608,2.92419 -1.6002,3.25583 -1.56036,4.74994 -0.73836,2.56293 -0.54852,-2.18943 0.2942,-4.33969 -0.45056,-2.21661 -1.3608,-2.34563 -2.24604,-2.124 -0.9888,1.31262 0.884,0.5043 1.327,-0.74004 1.46724,-1.47572 0.97724,1.1123 -0.70044,2.30046 -1.88048,4.1505 -0.83756,4.32471 0.17156,1.51338 1.2162,0.30716 1.63404,-0.71954 0.97396,0.46191 0.38548,-0.3866 0.42156,-0.40859 -0.43396,-0.54744 -0.63776,0.69158 0.51312,-0.63987 3.11316,-1.67638 2.94932,0.27767 -0.76324,0.81264 -1.21968,1.3434 0.084,-0.73736 0.63064,-2.82933 1.32636,-4.3543 1.30736,-6.66494 1.39576,-6.90379 2.0746,-5.32644 1.24216,-2.25072 -0.56996,-0.42199 -1.45816,0.70123 -0.76804,1.25131 -0.6698,2.12142 -0.2392,0.92251 0.45212,-1.03933 -0.08188,1.4885 -0.9948,2.83531 -1.68072,1.26451 -1.64692,2.41376 -1.15888,2.79798 -1.0858,0.97066 -1.28992,1.88324 -2.67248,1.61196 -2.45332,1.10743 -1.6338,-0.0414 -1.31996,0.81953 -2.04024,1.93753 -1.57152,1.88098 0.26448,-1.91459 1.59052,-3.84798 1.09424,-2.88429 -0.57492,-1.74285 -2.64556,-1.48032 -2.81264,0.97736 -0.44224,2.0605 0.75316,2.80305 0.6512,0.70888 1.20456,0.47705 0.97692,0.0504 0.714,-0.23871 0.38052,-0.69438 0.39164,0.85119 0.89264,1.43812 0.81236,-0.67171 0.181,-0.34252 -0.36288,-0.82272 -0.11148,-0.43391 0.51492,0.96861 -0.35124,-1.43339 0.0104,-2.04412 1.52492,-2.72373 3.05688,-3.49772 4.32084,-3.60073 2.48316,-0.89253 0.80608,-1.68797 -0.10184,-3.39454 0.6444,-3.52553 1.4218,-3.40008 2.29308,-5.85058 3.07692,-4.60985 3.07316,-2.31715 1.45516,1.76199 0.80284,4.12337 -0.05668,0.88084 0,0.63276 0.53612,1.4572 0.24304,-1.02499 1.03892,-1.78424 1.91068,-0.13545 1.20612,1.16425 -0.3906,3.41779 -0.81732,4.18649 -1.24088,5.35943 -2.34436,6.3569 -3.22812,5.05663 -2.9134,2.29011 -2.42192,1.66667 -1.17012,0.0973 -1.18284,-4.3486 -1.57124,-1.58907 -1.19764,-0.27163 -0.9326,-1.73058 -0.49632,-2.54636 -0.69448,-0.276 -0.1912,-0.65642 -0.63128,-5.66236 -2.08004,-4.36344 -1.06868,-1.699 -0.424,-2.95932 0.58812,-1.6806 1.16592,-1.02531 0.63176,0.81996 0.24772,1.56043 -0.40972,1.72027 0.11244,4.16315 0.29096,5.17163 0.76648,3.9903 1.23452,4.00297 1.01428,3.97112 1.29908,2.45129 1.23648,2.51043 0.0882,0.99359 0,1.80278 -0.11004,0.40453 -0.17564,-0.15801 0.93708,-3.63742 1.08656,0.66236 1.77,2.77801 1.50452,2.03194 1.23152,2.01984 0.6566,1.69428 0.73108,-0.69092 1.31904,-3.20495 3.186,-4.22025 3.98464,-3.07203 2.65052,-1.18021 1.35976,1.31285 0.8252,1.11526 -0.64104,2.52015 -1.48812,4.46662 -0.415,1.92372 -0.16128,0.31792 0.07876,2.30051 -0.25,0.94317 -0.48552,0.75875 -0.70436,1.31119 -1.7222,2.38692 -2.38068,1.6623 -2.02784,-0.23745 -1.07512,-3.80129 -0.81216,-4.03504 -0.64396,-1.57433 -0.96728,-0.82793 -1.2896,-1.88508 -1.43208,-0.91002 -1.14808,-1.31622 -1.36596,-1.47524 -0.09448,0.21109 0.38008,-0.89792 -1.57612,0.15999 -2.08656,1.25771 -1.19608,0.44925"
       id="path4487" />
    <path
       style="fill:none;stroke:#a92000;stroke-width:4"
       inkscape:connector-curvature="0"
       d="m 593.60674,-338.21708 h 0 0 0 0 0 0 0 0 0 l 0,-0.0134 0,-0.0216 0.0148,0.0451 0,-0.0763 0.0104,-0.007 0.15156,0.88219 0.0104,0.004 0.0104,-7.6e-4 -0.0578,1.79674 0,0.10608 -0.0998,5.87841 -0.0148,11.18508 -0.30368,13.92357 -0.0882,12.80217 0,9.8466 -0.084,4.20932 -0.10184,0.19002 -0.30452,0.0993 -0.84292,-0.008 -2.28132,-0.0661 -3.73696,-0.0879 -4.20664,-0.15401 -3.07112,-0.13428 -5.19616,-0.20559 -3.623,-0.22018 -7.21804,-0.20669 -7.12236,-0.17991 -4.32816,-0.16083 -3.2798,-0.17394 -2.75992,-0.15708 -1.92572,1.46548 -2.51696,4.78262 -3.35424,9.39659 -2.4508,9.54106 -1.74224,8.11709 -0.55188,7.38387 -0.193,3.54992 -0.37832,0.39151 -0.34084,0.35513 -0.30872,0.32366 -0.28084,0.29624 -0.25676,0.27223 -0.2356,0.25109 -0.41632,0.0634 -0.35732,0.0388 -0.3216,0.0361 -0.29116,0.0335 0,0.0249 0,0.0221 0,0.0208 -0.16056,0.0343 -1.44772,4.14549 -3.03072,11.26569 -4.9408,12.91373 -3.48484,9.24 -5.6956,15.76075 -7.65692,16.46045 -9.54672,16.19353 -10.57424,11.76747 -10.69728,4.54051 -10.45516,0.41455 -9.93752,0.16558 -10.41748,0.22417 -11.02884,0.30919 -11.42148,0.44571 -11.392,0.55938 -11.75904,0.58204 -11.81768,0.37873 -11.79232,0.38992 -11.56388,0.94827 -10.45052,2.47539 -8.83544,3.86349 -6.3698,5.70453 -3.84564,5.13546 -3.19148,2.68649 -2.78836,1.262 -2.02244,1.61161 -1.58476,0.94342 -1.48964,0.0765 -0.67368,0.11511 -0.1162,-0.0548 -0.18096,-0.0103 -0.28224,0.0548 -0.04,-0.15635 -0.0376,-0.14665 -0.0168,-0.11644 -0.0693,-0.0388 -0.11044,0.0148 -0.0987,0.0151 -0.1152,0.005 -0.0148,0.003 0,0.006 0,0.005 0,0.005 2e-4,0.006 -0.042,0.0292 -0.0104,0.0104 -0.026,0.0283 -0.04,0.0327 -0.0588,0.0401 -0.0188,0.007 -0.0272,-0.001 -0.0376,6.5e-4 -0.041,-0.005 -0.0348,-10e-4 -0.0536,0.0118 -0.0714,-0.0104 -0.0208,-0.003 -0.0662,-0.0733 0,0.009 0,0.007 0,0.008 0,0.007 -0.0924,-0.0958 -0.0546,-0.0547 0,-0.0324 0,-0.0304 0,-0.0274 0,-0.0257 0.0148,-0.0243 -0.0483,0.0528 -0.028,0.21433 0.0104,6.32445 0.0292,10.22112 0.0168,8.13848 0.0304,5.77246 0.022,4.60152 0.0104,2.73738 -0.0104,3.00813 0.0128,3.00104 -0.0104,1.45132 -0.0272,0.1073 -0.0232,0.0797 -0.0224,0.0977 -0.0188,0.0909 -0.0168,0.0494 -0.0148,0.11319 -0.026,0.0149 -0.0104,0.1185 0.0148,0.13574 0,0.0394 0,0.0457 0.038,0.0426 -0.0104,0.0118 0,0.0104 0.0662,-0.0533 0.0272,-0.073 0.36132,-0.11982 0.93344,-0.15251 1.70152,-0.23717 2.6714,-0.29998 4.34048,-0.38197 6.08728,-0.55228 6.88224,-0.54087 6.28172,-0.45065 5.47416,-0.27225 3.83084,-0.1179 1.79172,0.003 0.62472,0.107 0.0168,0.12012 0.0452,0.1468 -0.0104,0.10376 0,0.0898 0.0525,0.0809 0,0.0733 0,0.0544 0.0682,0.0242 0.11992,-0.067 0.041,-0.0336 0.0212,-0.025 0,0.006 0,0.002 0,-0.002 0,-0.0486 0.0104,-0.0118 0,-0.0539 0.0104,-0.0185 -0.0104,-0.0331 -0.0148,-0.0362 0,-0.0206 -0.0148,-0.019 -0.0104,-0.0221 -0.0336,0.007 -0.0324,0.026 -0.0224,0.0148 -0.0232,0.0149 -0.0494,0.0672 -0.04,0.0391 -0.042,0.0346 -0.0451,0.0356 -0.0104,-0.0239 0,-0.0158 0,-0.0148 8e-5,-0.008 0,-0.005 0,-0.0523 0.0104,-0.068 0,-0.073 0,-0.003 -0.0148,-0.0221 -0.0188,-0.14164 -0.0208,-0.25219 -0.0148,-0.0348 -0.0128,-0.0322 -0.10836,0.17337 -0.0104,-0.0248 0,-0.0445 0,-0.0177 0.0104,-0.034 0.0104,-0.0223 0,-0.003 0,0.003 -0.0104,0.001 -0.0224,0.0165 -0.0368,0.018 -0.0452,0.006 -0.0546,-0.0133 -0.062,-0.0392 -0.0536,-0.074 0.0104,-0.042 -0.0546,-0.0736 -0.0336,0.009 0,0.0335 -0.0777,-0.0302 -0.0441,-0.0329 -0.22776,-0.12144 -0.56204,-0.10937 -0.94892,-0.10037 -0.95328,-0.0579 -0.60208,-0.0948 -0.20652,-0.0964 -0.0304,-0.0725 -0.0252,-0.0834 -0.0409,-0.10346 -0.083,-0.11747 -0.0808,-0.11688 -0.0683,-0.1272 -0.0735,-0.12645 -0.10292,-0.10259 -0.0746,-0.0856 -0.1428,-0.0389 -0.0188,-0.0756 -0.083,-0.0364 0,-0.0655 0,-0.0615 0.0168,-0.0479 -0.13408,-0.0215 -0.0861,-0.0458 -0.043,-0.04 -0.105,-0.14933 -0.0966,-0.17693 -0.041,-0.0485 -0.0536,-0.0602 -0.0578,-0.0836 -0.0324,-0.0103 -0.0348,-0.0148 -0.0472,-0.0411 -0.0232,0.003 -0.0316,-0.005 -0.0609,-0.0475 -0.0356,-0.015 -0.0316,-0.009 -0.04,-0.0104 -0.0598,-0.006 -0.062,-0.005 -0.0777,-0.0133 -0.0766,-4.1e-4 -0.0882,-0.0133 -0.0682,-0.0147 -0.24904,0.0443 -2.11904,0.22431 -4.15304,0.41821 -6.08896,0.60174 -6.78668,0.4949 -6.45016,0.51879 -6.7996,0.47411 -7.15636,0.64964 -7.59296,0.51683 -7.3856,0.52507 -5.94332,0.39667 -4.38048,0.27326 -2.89328,0.17848 -1.83108,0.11983 -1.37688,0.0752 -1.04076,0.0442 -0.60364,0.033 -0.20832,0.005 -0.0966,-0.0148 -0.041,0.005 -0.043,0.0147 -0.0756,0.0373 -0.0808,0.0411 -0.18168,0.1098 -0.0388,0.0205 -0.11016,0.0525 -0.0588,0.0331 -0.0124,0.0199 -0.0388,0.0175 -0.0525,-0.0103 -0.0409,-0.0327 -0.0473,-0.088 -0.0514,-0.16047 -0.0128,0.009 -0.0124,0.005 -0.0104,-0.096 -0.0104,-0.0623 -0.0104,-0.0304 2e-4,-0.0133 0,-0.0148 -0.0662,0.0421 -0.0104,0.008 -0.0348,0.0476 -0.0348,0.0504 -0.0441,0.0605 -0.0672,0.0816 -0.0693,0.0676 -0.0609,0.0466 -0.1238,0.0855 -0.111,0.0635 -0.0714,0.0147 -0.042,-0.0377 -0.38052,-0.0267 -1.37128,0.1185 -2.4358,0.20112 -2.85756,0.10863 -2.10536,-0.0104 -2.06144,0.0188 -2.87304,0.10891 -4.54556,0.14518 -4.68476,0.17257 -4.23372,0.17147 -3.54952,0.12764 -2.30792,0.0501 -1.08864,-0.0287 -1.25696,-0.0613 -1.2812,-0.0758 -1.69124,-0.0193 -1.45696,-0.0187 -0.84012,-0.0597 -0.246,-0.11732 -0.0514,-0.13074 -0.083,-0.0903 -0.0567,-0.083 -0.0924,-0.0362 -0.0641,-0.0391 -0.0104,-0.0722 -0.0104,-0.0597 -0.0244,-0.0321 -0.0128,-0.0313 0,-0.0265 -0.0304,-0.0675 -0.0577,-0.11909 -0.041,-0.12616 0.0124,-0.0302 -0.0148,-0.10376 0,-0.0786 -0.0104,-0.067 -0.0104,-0.0463 -0.0124,-0.037 -0.0224,-0.0298 -0.0224,-0.0206 -0.0124,-0.009 -0.028,-0.007 -0.0168,0.001 -0.0208,0.0148 -0.0609,0.0506 -0.0441,0.0239 -0.0296,0.006 -0.0714,0.0438 -0.0104,-0.0317 -0.063,0.0214 -0.0578,0.0268 -0.17208,0.11305 -0.0714,-0.003 -0.063,0.0321 -0.54768,0.16493 -0.47408,0.0983 -0.19928,0.0238 -0.29076,0.0423 -0.83308,0.13206 -2.68924,0.37178 -4.83284,0.75449 -5.56828,0.71337 -4.74936,0.6979 -4.71196,0.72561 -5.0312,0.76764 -6.07464,0.9577 -7.19932,1.16247 -7.3034,1.21704 -6.0122,0.93681 -4.29364,0.65522 -2.94872,0.43348 -1.96276,0.27067 -1.17432,0.1812 -0.92128,0.20296 -0.43556,0.0482 -0.043,-0.0408 -0.36624,0.44699 -0.0104,-0.0273 -0.0104,-0.0223 -0.25536,0.36159 -0.28036,0.38419 -0.0798,0.0989 -0.0787,0.10199 0,0.003 0,10e-4 -0.0116,0.0379 0,0.0403 0,0.0519 0.0104,0.0401 0.0104,0.0355 0.0124,0.0562 0.014,0.0607 0.0124,0.10567 0,0.1076 0.0316,1.64516 0.0452,1.99059 0,1.05361 0,0.12203 -0.0104,-0.0147 0,-0.0166 -0.1656,0.16688 -0.15652,0.10199 -0.084,0.0261 -0.1614,0.14518 -0.17336,0.2162 -0.21672,0.18814 -0.55776,0.23034 -1.006,0.29229 -1.80252,0.42933 -2.25384,0.50139 -2.0602,0.51836 -1.20616,0.30094 -1.37768,0.34641 -1.9594,0.36518 -2.82252,0.49048 -3.11324,0.52657 -3.01824,0.4933 -2.68032,0.44074 -2.28304,0.40859 -2.1508,0.38176 -2.2322,0.39726 -2.0288,0.39348 -1.8838,0.41138 -1.40976,0.33129 -0.36308,0.078 -0.0651,0.0661 -0.083,0.0918 -0.0494,0.07 -0.0483,0.0623 -0.0641,0.0598 -0.0766,0.0218 -0.0861,0.0238 -0.0599,0.0353 -0.0348,0.0374 0,0.0475 -0.0168,0.0536 0,0.0302 0,0.0229 -0.0116,0.0421 -0.0104,0.0457 0,0.0324 -0.0232,0.073 0,0.0133 0,0.0234 -0.0316,0.0796 -0.0208,0.0443 -0.0128,0.0304 -0.026,0.0533 -0.038,0.0571 -0.0252,0.0261 -0.0388,0.0133 -0.063,-0.0104 -0.0441,-0.0231 -0.0546,-0.005 -0.0196,-0.003 -0.0829,-0.018 -0.20268,0.005 -0.55552,0.0443 -1.54792,0.18888 -2.11996,0.26274 -2.0832,0.27338 -1.47936,0.19539 -1.23528,0.17825 -0.88612,0.14621 -0.40656,0.0545 -0.19508,0.015 -0.062,-0.0133 -0.0136,-0.0311 -0.0504,-7.5e-4 -0.0483,0.0161 -0.0348,0.0151 -0.0148,-0.009 -0.0356,0.003 -0.0272,0.009 -0.0148,0.003 -0.0104,3.4e-4 -0.02,0.005 -0.0156,-0.002 -0.02,0.002 -0.0104,0.003 0,5.1e-4 -0.0104,0.003 -0.0104,0.008 -0.016,0.003 -0.0104,-0.003 -0.0104,-0.009 0,-0.009 0,-0.0168 0,-0.0257 0,-0.0163 0,-0.0118 0.0116,-0.0103 0.0252,0.008 0.0148,-0.005 0.0128,2.5e-4 0.0156,0.0236 0.02,0.0576 0.0104,0.10303 0,0.11128 0.0176,0.0932 0,0.0205 0,0.0156 0,0.0464 0,0.0421 -0.0104,0.0389 -0.0136,0.0223 -0.0156,0.0191 -0.0208,0.0209 -0.0244,0.0147 -0.0148,-1.9e-4 -0.0296,0.005 -0.0336,-0.006 -0.0336,-0.0175 -0.0441,-0.0283 -0.0462,-0.0414 -0.0472,-0.0629 -0.043,-0.0933 -0.0767,-0.0568 -0.0556,-0.0539 -0.0441,-0.0386 -0.0441,-0.0177 -0.0376,-0.0263 -0.0368,-0.0408 -0.0535,-0.0382 -0.0714,-0.0133 -0.0546,-0.005 -0.0304,-0.0217 -0.0388,0.0133 -0.063,0.0701 -0.0148,0.0104 -0.0356,0.0365 -0.0304,0.0103 -0.0104,-0.0255 -0.0525,0.0933 0,-0.008 -0.0272,0.0721 -0.0116,0.54741 0,0.2932 -0.0494,0.1269 -0.0232,0.031 -0.022,0.11761 -0.0104,0.14312 0.0116,0.0398 0.0208,0.0809 0.0208,0.0346 0.0284,0.0703 0.022,0.0192 0.0304,0.0494 0.0324,0.031 0.0348,0.0118 0.04,0.0133 0.0316,-0.005 0.0356,0.003 0.0208,-0.0163 0.0224,0.006 0.0112,0.003 0.0128,0.0118 0.0104,0.009 0.0104,0.0313 0.0104,0.0203 -8e-5,0.0234 0,0.006 -0.02,0.0443 -0.0156,0.0374 -0.0104,0.0181 -0.0525,0.0777 -0.0296,0.0524 -0.0252,0.0344 -0.0388,0.0377 -0.0598,0.0458 -0.038,0.0242 -0.0356,0.0241 -0.022,-0.001 -0.0525,0.0197 -0.0473,0.0133 -0.026,-0.0203 -0.038,0.0214 -0.042,0.0302 -0.0208,7.5e-4 -0.0168,0.0187 0.0128,1.31877 0.0682,3.2498 0.0892,3.91491 0.12432,4.96721 0.14208,5.303 0.10752,4.10004 0.043,1.91531 0.0296,1.21536 0.0861,3.08861 0.0536,2.10303 -0.0104,0.29437 0,0.42854 -0.02,0.0688 -0.0104,0.0495 -0.0104,0.0148 0,0.0432 0.014,0.047 0.0104,0.0331 0.02,0.0666 0,0.0388 0.0104,0.0532 0,0.0507 0,0.0572 0,0.0438 0.0136,0.0657 0.0104,0.0666 -0.0104,0.0397 -0.0104,0.0356 -0.0104,0.0576 -0.0128,0.016 -0.0128,0.0545 -0.0104,0.0903 -0.0104,0.0514 -0.0116,0.0335 -0.0148,0.0513 -0.0148,0.0572 -0.0116,0.0367 -0.0104,0.0293 -0.0128,0.0728 -0.0104,0.0348 -0.0104,-0.005 -0.014,0.0209 -0.0176,0.0308 -0.0104,-0.007 -0.0104,0.0223 -0.0104,0.0267 0,0.0103 -0.0104,0.0243 -0.0148,0.0156 -0.018,0.009 -0.02,0.0183 -0.0176,0.0258 -0.0148,0.0637 -0.0112,0.0469 -0.0104,0.0509 -0.0104,0.0308 -0.0104,0.0718 0,0.0814 0.02,0.0784 0.0336,0.053 0,0.009 0.064,0.0373 0.0798,0.009 0.0767,-0.009 0.0766,-0.0283 0,-0.006 0.0861,-0.089 2.03512,-0.67353 4.88964,-1.47132 5.2776,-1.32892 5.27456,-1.41027 4.0146,-1.09066 3.37992,-0.92729 3.08848,-0.84941 2.07964,-0.51723 0.91696,-0.21648 0.0525,0.005 0,0.0238 0,0.0307 0.0116,0.0275 -0.0128,0.0162 0,0.0202 0.0148,0.0211 0,0.0148 -0.0104,0.003 0,0.0103 0.0104,0.0118 0,-0.001 0,-0.0159 0.0104,-0.0311 0,-0.003 0,-0.003 0,0.001 -0.0104,0.0133 0,0.009 v 0.0183 l 1.2e-4,0.0199 0,0.022 -0.0104,0.0231 -0.0104,0.0245 -0.0104,0.0246 -0.0104,0.0234 0,0.0301 0,0.0392 0,0.0317 -0.0104,0.0364 0,0.003 0,0.003 0,0.003 0,0.001 0,0.002 -0.0324,0.13147 -0.0136,0.0683 1.2e-4,0.0268 0,0.0398 0,0.006 0,0.005 0,0.005 0,7e-5 0,9e-5 0,3e-5 0,0.0516 0,0.0283 0.0104,0.008 0,0.0264 -0.0116,0.0623 -0.0136,0.053 0.0104,-0.0775 -0.0212,0.0318 -0.0156,0.018 -0.0104,0.0118 -0.02,0.04 -0.0148,0.0185 -0.0232,0.0278 -0.0188,0.0148 -0.02,0.0147 -0.0104,0.004 -0.0116,0.0286 -0.0304,0.0661 -0.0232,0.047 0,0.0341 0,0.0409 0,0.0475 0,0.0491 -0.042,0.0745 -0.0104,0.0616 -0.018,0.0663 -0.0208,0.0647 2e-4,0.0354 -0.0188,0.0238 -0.042,0.0397 -0.0232,0.0397 -0.0104,0.0302 0,0.0342 -0.0578,0.13884 0,0.003 -0.018,0.0364 0,0.001 -0.0136,0.0498 0,0.0149 0,0.009 -0.0116,0.0335 -0.0148,0.0321 -0.0104,0.0133 -0.0104,0.0162 -0.0104,0.0163 -0.0104,0.006 0,0.003 0,0.004 0,0.0191 0,0.0227 -0.0104,0.003 -0.0104,-0.0104 -0.0112,0.0148 -0.0104,0.17285 0,0.15278 0,0.0392 0,0.062 0,0.0616 0,3.8e-4 0,0.0159 -0.0104,0.009 -0.0104,10e-4 -0.0104,0.0133 -0.0104,-0.006 -0.0156,0.009 0,-0.0295 0.0116,-0.003 0,0.0281 -0.0224,0.0435 -0.0376,0.0403 -0.0284,0.0205 0,0.015 0,-0.0133 -0.12948,-0.0245 -0.42344,0.0272 -0.4012,0.0254 -0.34388,0.028 -0.2728,0.0242 -0.15676,-0.005 -0.12916,-0.0322 -0.0556,-0.0365 -0.0514,-0.0177 -0.0316,-0.0147 -0.0304,0.005 -0.0472,0.0232 -0.0324,0.015 -0.0244,0.0118 -0.0272,0.0174 -0.0208,0.006 0,-0.006 -0.0452,0.0154 -0.041,0.008 -0.043,0.0147 -0.0188,0.0258 -0.0128,0.0185 -0.0104,0.0162 0,0.006 0,-0.005 0,-0.0148 0,-0.0374 0,-0.0519 0.0156,-0.0567 0,-0.0327 0.0104,-0.0345 0.0104,-0.0301 0.0168,-0.0307 0.0252,-0.0322 0.0148,-0.0199 0.0104,-0.0118 0.0104,-0.003 0.0104,0.005 0.0148,0.0118 0.0104,0.0118 0,0.006 0.0128,0.0133 0,0.005 0,0.007 0,0.0133 0,-2.1e-4 0,0.008 0,10e-4 0,0.003 -0.0104,-3.9e-4 -0.0104,-10e-4 -0.0116,-0.0212 0.0104,0.0458 -0.0208,-0.0607 -0.0316,-0.0836 0.0232,-0.0118 0.0104,-0.0365 -0.0284,-0.0466 -0.0188,-0.0405 -0.0104,-0.0277 -0.0104,-0.0226 -0.0252,-0.0148 -0.0212,-0.0118 -0.0264,0.008 -0.026,0.0176 -0.0356,0.0426 -0.02,0.0316 -0.0188,0.0368 -0.0136,0.0342 0,0.023 0,0.0118 -0.0441,0.12764 -0.0104,0.0498 0,0.0388 0.0124,0.0206 -0.0196,0.11143 0.0104,0.0221 -0.0104,0.0613 0,0.0507 -0.0188,0.0563 -0.0252,0.0455 -0.0104,0.0302 -0.0148,0.0205 -0.0104,0.0156 -0.0104,0.0148 -0.0136,0.0162 -0.018,0.018 -0.02,0.0104 -0.0208,0.0103 -0.0128,0.006 -0.0104,10e-4 -0.016,-10e-4 -0.028,7.5e-4 -0.016,-0.005 -0.0128,-0.006 -0.0462,0.0133 -0.0252,10e-4 -0.0104,-0.0206 -0.0244,-0.0226 -0.0494,-0.0189 0,-0.0357 0,-0.0339 -0.11564,-0.0993 0,-0.0404 -0.0462,-0.10479 -0.181,-0.17621 -0.85996,0.028 -1.64872,0.21072 -1.37808,0.13707 -0.47756,-0.0284 -0.11728,-0.0585 -0.0316,-0.0497 -0.0452,-0.0615 -0.0232,-0.0295 0,-0.005 -0.0514,-0.0464 -0.0336,-0.0181 -0.0104,0.007 -0.04,-0.007 -0.0356,-3e-4 -0.014,0.008 0,0.0103 -0.0356,-0.006 -0.0473,-0.0197 -0.0304,-0.0103 -0.0188,5.3e-4 -0.0156,0.006 -0.0104,0.001 -0.0168,-0.006 0,10e-4 -0.0212,-0.0495 -0.0104,-0.0609 0,-0.0865 -0.0104,-0.0133 0,-0.0308 0,-0.0229 0,-0.009 0,0.005 -0.0104,-0.006 0.0128,-0.04 0.0104,-0.0329 0.0104,-0.0293 0.0104,-0.0212 0.0104,-0.0178 0.0104,-0.0118 0.0104,-0.006 0.0104,-0.0186 0.0104,-0.0233 -0.0104,0.0518 0,0.003 -0.0232,0.0442 -0.0116,-0.007 -0.0196,-0.0269 -0.038,-0.0177 0,-0.0448 -0.0104,-0.0508 -0.0588,-0.005 -0.2476,0.033 -0.6954,0.11762 -1.13988,0.20213 -1.46192,0.2733 -1.64536,0.28913 -1.30788,0.20823 -0.6804,0.17015 -0.29376,0.07 -0.25936,0.0478 -0.46328,0.0764 -1.08484,0.60013 -2.03168,1.44107 -2.46652,1.81435 -2.2344,1.68401 -1.92464,1.8829 -2.05572,1.48884 -1.79664,0.9522 -1.09452,0.24593 -0.57312,0.10185 -0.12124,-0.005 0,-0.0224 -0.0525,0.0371 -0.0296,0.0246 -0.038,0.0455 -0.0292,0.0358 -0.0188,0.0148 -0.0168,0.003 -0.0136,-0.003 -0.0104,10e-4 -0.02,-0.0167 -0.0284,-0.0737 -0.0224,-0.0805 -0.0168,-0.0715 -0.014,-0.0631 -0.0136,-0.0299 -0.0104,-0.0415 -0.0104,-0.0254 -0.0104,-0.002 -0.0104,-0.0196 0,-0.0174 0,2.2e-4 0,10e-4 0,-7.5e-4 0,7.5e-4 0,-0.003 0,-0.006 -0.0104,-0.007 -0.018,-0.008 -0.0104,-0.0229 -0.022,-0.0186 -0.0232,-0.0189 -0.0156,-0.0249 -0.0188,-0.0329 -0.0284,-0.0585 -0.0136,-0.065 -0.0128,-0.0684 -0.016,-0.0699 -0.0252,-0.073 -0.0244,-0.0716 -0.02,-0.0709 -0.0252,-0.0652 -0.018,-0.0668 -0.0188,-0.0743 -0.0272,-0.0712 -0.0336,-0.0637 -0.0316,-0.0488 -0.0368,-0.0226 -0.0324,-0.0118 -0.0252,-0.0147 -0.0356,0.0103 -0.026,10e-4 -0.026,0.005 -0.0272,0.008 -0.0252,0.0147 -0.0296,0.0419 -0.0104,-0.0118 -0.0104,0.0118 -0.0104,0.0361 -0.0128,0.0839 0,0.0426 0,0.0284 0,0.0551 0,0.0508 0.0104,0.027 0.0104,0.061 0.0104,0.0448 0.0104,0.027 0,0.0345 0,0.0275 0,0.18425 0.0208,0.50218 0.0336,0.93205 0.0483,1.29579 0.063,1.70362 0.062,1.72263 0.0514,1.44736 0.0336,0.95265 0.0188,0.61844 0.0104,0.49369 0.0368,1.21462 0.0609,1.66074 0.0348,0.95885 0.0536,1.67101 0.0662,1.99118 0.0272,0.85268 -0.0156,0.23161 -0.0292,0.0905 -0.0116,0.005 -0.043,0.0429 -0.0494,0.006 -0.0483,-0.008 -0.0504,-0.0236 -0.25704,0.0362 -0.3726,0.0666 -0.73912,0.14823 -1.2832,0.27926 -1.6216,0.37141 -1.51424,0.33509 -1.32772,0.28113 -0.70224,0.1957 -0.20348,0.0432 -0.0514,0.0622 -0.064,0.089 0.0252,-0.0778 -0.0336,0.0763 0,-0.003 0,-10e-4 0,0.0924 0.014,0.12676 0.0232,0.11746 0.0128,0.0441 0.022,0.0616 0.0272,0.06 0.0316,0.0509 0.04,0.0466 0.0609,0.075 0.0316,0.0118 0.0176,-0.017 0.0336,0.0133 0.04,0.0174 0.0388,0.0181 0.0441,0.0314 0.0232,-0.001 0.014,-0.0118 0.0252,0.0234 0.0104,-0.0104 0.0104,0.008 0.0128,0.0855 0.016,0.29637 0.02,0.54701 0.0556,1.30253 0.0735,1.96277 0.0735,2.03081 0.0588,1.59483 0.0494,1.36539 0.0388,1.13709 0.0156,0.48702 0,0.0489 0,0.0834 -1.2e-4,0.028 0,0.0286 0,0.0261 -0.0104,0.0278 -0.0104,0.007 -0.0104,0.0339 -0.0104,0.0548 -0.0104,0.0368 -0.0104,0.0206 -0.0104,-0.001 -0.014,0.0535 -0.0116,0.0305 -0.0104,-0.005 -0.014,0.0585 -0.0112,0.0649 0,0.1378 1.2e-4,0.27605 -0.0104,0.24481 -0.0104,0.093 -0.0104,0.0743 0,0.0232 0,0.006 -0.0104,0.0597 0,0.0504 -0.0104,0.0535 -0.0104,0.0865 0,0.0591 8e-5,0.0514 -2e-4,0.0713 0,0.009 0,7.5e-4 0,0.0466 0,-0.003 0.0128,0.0544 0,0.0199 0,-0.0104 0,0.0237 0,0.0194 0,0.0188 0,0.0328 0,0.0368 0,0.0167 -2.4e-4,0.0324 0,0.0167 0,0.0181 0,0.02 0,-0.0206 -0.0104,10e-4 -0.0104,0.0133 -0.0104,0.0243 -0.0104,0.0151 -0.0104,0.0562 0,-10e-4 -0.0104,-0.006 -0.0104,-0.0103 0,-0.0148 -0.0104,-0.003 -0.0168,0.0133 -0.02,0.0226 -0.0272,0.0252 -0.0104,-0.0133 -0.0514,0.003 -0.12452,0.0246 -0.1074,0.0224 -0.0682,0.003 -0.0746,0.0153 -0.0504,0.008 -0.0452,0.0305 -0.04,0.0358 -0.042,0.0295 -0.0431,0.0326 -0.0244,-0.001 -0.0336,0.0241 -0.0504,0.0617 0,-0.0133 0,-0.0104 -0.0244,0.0501 -0.0304,0.10759 0,-7.5e-4 -0.0104,0.0899 0,0.0744 0,0.0697 0.0128,0.0641 0.0212,0.0435 0.0388,0.0353 0.0441,0.009 0.0662,0.0103 0.0756,0.0167 0.0272,-0.006 0.0104,-0.0151 0.0168,-0.0118 0.0244,-0.007 0.0284,-1.4e-4 0.0208,-0.005 0.0272,0.006 0.0252,0.0147 0.0188,0.0196 0,-0.005 0,-0.005 0,-0.003 0,-0.0104 0,-7.5e-4 0.0104,0.0254 0.0104,0.0292 0,-0.003 0.0104,0.0214 0,-10e-4 0.0104,0.0464 0,-0.0133 0,4e-5 0,-0.005 0,-0.007 0,0.0211 -0.0104,0.0479 0,0.0313 0,0.0183 -0.0104,0.0298 0,10e-4 -0.0104,-2.3e-4 -0.0188,0.0489 -0.0176,0.0634 -0.0168,0.0322 -0.0168,0.0304 -0.0168,0.0325 -0.0104,-0.007 -0.0128,0.0416 -0.0104,-0.002 0,0.0747 0.014,0.0738 0.0104,0.0482 0.0168,0.0666 0.0128,0.0568 0.0324,0.0875 0.0324,0.0478 0,-0.009 0.0651,0.0163 0.062,-0.0348 0.0966,-0.0674 0.3302,-0.13575 0.51212,-0.16138 0.2734,-0.0896 0.0104,-0.0433 0.0316,-0.0194 0.0208,-0.0363 0.041,-0.027 0.0504,-0.0118 0.11044,2.37171 0.0641,1.70409 0.0493,1.29022 0.0452,1.10825 0.0208,0.31126 0.0272,0.0321 0.0272,0.0355 0.0148,0.0236 0.0104,0.0258 0.0104,0.0221 -0.0104,-0.009 0,-0.001 0.0128,0.0365 0.0104,0.0267 0,-9e-5 0,0.005 0,-0.003 0,-0.0118 -0.0104,0.0103 -0.0104,0.0407 0,0.009 0,0.0118 0,0.043 0,0.0133 0,-0.003 0,0.0377 0,0.0458 0,0.0568 0,0.0602 0,0.0575 0,0.0469 -1.2e-4,0.0316 0,0.0464 -3.2e-4,0.0408 0,0.0541 0,-5.3e-4 0.0104,0.0263 0.0104,0.026 0.0104,0.0197 0.0116,0.0177 0.016,0.005 0.0168,-0.009 0.018,-0.0221 0.0284,-0.0491 0.0336,-0.0655 0.0441,-0.0597 0,-0.0263 0,-0.0118 -2e-4,-0.006 0.0168,-6.3e-4 0.0104,-0.003 0.022,0.005 0.0148,0.009 0,0.009 0,0.0133 0,0.0147 0,0.005 0,7.5e-4 0,-0.005 0,-0.008 0,-4.9e-4 0,3.1e-4 0,2.8e-4 0,1.8e-4 0,-0.005 h 0 v -4e-5 l 0,-0.006 0,-0.0133 0.0128,-0.0118 -0.0104,-0.0147 -0.0212,-0.0133 -0.0284,-0.0133 -0.0348,-0.017 -0.0388,-0.0339 -0.84516,0.12734 -1.64628,0.33105 -1.33876,0.28486 -0.60828,0.12616 -0.18796,0.0376 -0.043,0.0199 -0.0441,0.0281 -0.0284,0.0133 -0.0368,0.0148 -0.0462,0.0176 0,-0.02 0,-0.0153 0,-0.0147 -0.0168,-0.008 -0.0244,-0.007 -0.0136,-0.006 -0.0104,-0.005 -0.0148,-0.005 -0.0128,-0.006 -0.0104,-0.0153 0,-0.016 0.0104,-0.0153 0.0104,4e-5 0,0.008 0,0.0172 0,-0.009 0,0.0104 0,0.0305 0,0.02 0,0.0259 -0.0104,0.0397 0,0.0202 -0.0104,0.0308 -0.0104,0.0478 -0.0104,0.0175 -0.0104,0.0104 -0.0128,0.0551 0.0104,0.10095 -0.0232,0.0403 -0.0104,0.10141 -0.0252,0.19191 -0.0136,0.0996 -0.0104,0.0989 -0.0104,0.0964 -0.0188,0.0756 -0.0104,0.0371 0,0.0221 -0.0546,0.0397 -0.064,0.04 -0.038,0.0394 -0.0252,0.0162 -0.0304,0.0118 -0.0252,-0.003 -0.0212,-0.018 -0.0272,-0.0133 -0.04,0.003 -0.0356,0.003 -0.0324,0.002 -0.0431,0.0118 -0.0356,0.005 -0.0304,-0.003 -0.0284,-0.007 -0.0252,-0.009 -0.0316,-2.7e-4 -0.041,0.017 -0.0316,0.0103 -0.0304,0.0203 -0.016,0.009 -0.0188,0.0217 -0.0104,0.008 -0.0104,0.0168 -0.0104,0.0154 0,0.009 0.0104,-7.2e-4 0.018,-4e-5 0.0112,5.4e-4 0,-0.003 0,10e-4 0.0104,0.008 0,0.005 0.0104,0.009 0.0104,0.0118 0,0.007 0,0.0104 0,0.006 0,7.5e-4 0,-0.005 0,-0.009 -0.0104,-0.009 -0.0116,-0.005 -0.0104,-0.0133 -0.0156,-0.0133 -0.0104,-0.0133 -0.0148,-0.0104 -0.0244,-0.009 -0.0304,-0.0104 -0.0136,-0.0133 -0.0212,-0.0292 -0.0128,-0.0391 -0.0272,-0.0467 -0.0272,-0.0485 -0.043,-0.0281 -0.0651,-0.0104 -0.0714,-0.001 -0.0672,-0.006 -0.15708,0.0103 -0.29024,0.0394 -0.425558,0.0772 -0.53496,0.12233 -0.32112,0.0641 -0.17976,0.033 -0.08712,0.0103 -0.0504,-7.2e-4 -0.0336,-0.006 0,-0.027 -0.026,-0.0133 0,-0.022 0,-0.0162 -0.0252,0.005 0,-0.0104 -0.0156,-0.007 -8e-5,-0.008 -0.026,-0.0385 0,-10e-4 0,-7.3e-4 0,-7.2e-4 0,-0.0191 0,-0.0103 0,-0.0118 -0.0104,-0.0118 -0.0104,-0.009 -0.0136,-0.006 -0.02,7.5e-4 -0.0104,-0.008 -0.0104,-0.0166 -0.0128,-0.0214 0,-0.0338 0,-0.0374 -0.018,-0.0398 -0.0128,-0.0565 -0.0264,-0.0504 -0.04408,-0.0326 -0.42096,0.11319 -0.62064,0.18675 -0.53656,0.16368 -0.69604,0.2118 -0.7496,0.21295 -0.901,0.24836 -1.2222,0.3387 -1.09056,0.28413 -0.50588,0.0958 -0.45424,0.0893 -0.44288,0.0787 -0.1874,-0.009 -0.07352,-0.0426 -0.09448,-0.0408 -0.0672,-0.0464 -0.04096,-0.0311 -0.0348,-0.0153 -0.04304,-0.006 -0.0296,-0.009 -0.0348,0.002 -0.0296,0.007 -0.0272,0.005 -0.0304,-3.1e-4 -0.022,-0.003 -0.0336,0.0186 -0.026,0.0232 -0.0316,0.0426 -0.022,0.0243 -0.0168,0.0118 -0.02,0.0233 -0.0188,0.027 -0.0232,0.0421 -0.0104,0.0252 -0.0104,0.0286 0,0.0203 0,0.0133 0,0.0104 0,0.009 0,0.008 0,0.007 0,0.009 0,0.0104 0,0.0103 0,0.006 0,0.0118 -0.0104,0.0147 -0.0104,0.0147 0,0.0156 -0.0104,0.027 0,0.0203 -0.0148,0.0328 -0.0212,0.0379 -0.0208,0.0292 -0.0244,0.0295 -0.02,0.031 -0.0252,0.0405 -0.06616,0.0554 -0.20484,0.0993 -0.28676,0.13014 -0.19268,0.0921 -0.40448,0.16048 -0.45096,0.17024 -0.24716,0.0964 -0.17756,0.0715 -0.15288,0.0623 -0.09032,0.0391 -0.0244,0.0104 -0.0296,0.018 -0.04832,0.0277 -0.04,0.0267 -0.0212,0.006 -0.0208,0.006 -0.0356,0.0211 -0.04092,0.031 -0.0272,0.0194 -0.0348,0.0316 -0.0252,0.0147 -0.04516,0.0426 0,-0.0133 0,-0.0118 0,-0.006 -0.0232,0.0679 0,-0.001 -0.0104,0.0156 -0.0148,0.0388 0,-0.005 0,0.0233 0,4.4e-4 0.0104,0.0148 0.0104,0.0151 0.0104,0.0167 0.0104,0.0118 0,0.0118 0,0.0186 0,0.0336 0,0.0217 0,0.0186 0,0.0397 0,0.028 0,0.0212 0,0.0209 -1.2e-4,-2.6e-4 -1.2e-4,-3.7e-4 -0.0136,0.0268 -0.0168,0.0342 -0.0156,0.0406 -0.016,0.0625 -0.0104,0.0721 -0.0156,0.0855 -0.0148,0.0867 -0.0104,0.0765 0.0104,0.0517 -0.0208,0.0808 -0.04096,0.0725 -0.09136,0.0927 -0.10856,0.097 -0.10604,0.0889 -0.11404,0.0796 -0.22124,0.10538 -0.25208,0.0968 -0.18324,0.0774 -0.05568,0.0451 -0.0356,0.0404 -0.0348,0.0439 -0.0232,0.0296 -0.0272,0.0371 -0.0292,0.0427 -0.0156,0.0242 0,0.003 0,0.003 0,10e-4 0,0.002 2e-4,10e-4 -0.0232,0.0305 0,0.0118 -0.0168,0.0403 0,0.0133 -0.0244,0.0447 0,0.0104 -0.0112,0.0217 0,0.0104 0,-5.9e-4 -0.014,0.0161 -0.0104,-10e-4 -0.0168,0.009 -0.0148,0.003 -0.0148,0.007 -0.0116,-4.2e-4 -0.0168,-7.5e-4 -0.0116,-0.0147 -0.022,0.005 -0.0156,-0.002 -0.0168,-0.003 -0.02,-2.2e-4 -0.0232,-10e-4 -0.0272,-7.5e-4 -0.022,-0.0118 -0.0284,-0.007 -0.022,-0.009 -0.0356,0.0147 -0.0296,0.0104 -0.0272,0.0103 -0.04096,0.0147 -0.0252,-0.006 -0.0714,-0.002 -0.18216,0.0353 -0.08924,0.0104 -0.0284,-0.0118 -0.04,0.005 -0.022,-0.008 -0.0208,-0.0133 -0.0104,-0.0267 -0.08084,0.0193 -0.08508,0.0441 -0.04,0.0337 -0.0348,0.0295 -0.0324,0.0313 -0.0252,0.0205 -0.038,0.0367 -0.0304,0.0186 -0.0232,0.0103 -0.05356,0.0615 -0.05352,0.0797 0,0.003 -0.0304,0.0408 -0.038,0.0565 -0.0316,0.056 -0.0252,0.0484 -0.0284,0.0487 -0.0196,0.0333 -0.0104,0.0218 -0.0252,0.0255 -0.0104,0.0158 -0.0112,0.0156 -0.0128,0.0163 -0.0168,0.0192 -0.0112,0.0232 -0.0104,0.023 -0.018,0.0243 -0.0136,0.0234 -0.0104,0.022 -0.0148,0.0226 -0.0148,0.022 -0.0116,0.0209 -0.0232,0.0295 -0.018,0.022 -0.0244,0.0307 -0.05776,0.0429 -0.21124,0.0976 -0.39912,0.16277 -0.74664,0.27217 -0.98988,0.38669 -0.6768,0.31989 -0.21788,0.15486 -0.0714,0.087 -0.07036,0.0535 -0.45792,0.16026 -1.021,0.33825 -0.91328,0.29228 -0.5586,0.15922 -0.34296,0.0871 -0.1494,0.0257 -0.04932,-0.0147 -0.0296,-0.0441 -0.0388,-0.0423 -0.0388,-0.0405 -0.0348,-0.0286 -0.0292,-0.0221 -0.0336,-0.0153 -0.0348,-0.0133 -0.0348,-0.003 -0.0264,0.006 -0.0232,0.009 -0.04936,0.0311 -0.04828,0.0442 -0.0284,0.0319 0,0.0118 -0.0208,0.0259 -0.0116,0.0214 1.2e-4,0.0162 -0.0208,0.0133 -0.0224,0.0133 -0.0208,-0.006 -0.0168,-0.0192 -0.0112,-0.0376 -0.0104,-0.0302 0,-10e-4 0,-0.009 0,-0.0118 0,-0.0153 0,-0.0104 0,-0.0153 0,-0.0243 0,-0.0147 0,-0.0104 0,-0.005 8e-5,5.5e-4 -2e-4,7.5e-4 0,0.0118 0,0.007 0,0.009 -0.0104,0.0178 -0.0104,0.009 -0.0112,0.0104 -0.0104,0.0103 -0.0104,0.0104 -0.02,0.0162 -0.016,0.0148 -0.02,0.0118 0.0104,-0.003 2e-4,-0.004 -0.022,-0.0227 -0.0168,-0.0272 -0.022,-0.0347 -0.0148,-0.0354 -0.0156,-0.0368 -0.0104,-0.0307 -0.0148,-0.0397 -0.0168,-0.0336 -0.0136,-0.0267 -0.018,-0.0211 -0.0156,-0.0147 -0.0148,-0.009 -0.0208,0.006 -0.0156,0.003 -0.0156,0.003 -0.0212,0.0159 -0.0148,0.009 -0.0128,0.005 -0.018,0.0148 0,-0.0104 -0.0148,0.0401 -0.0104,0.0316 0,0.0411 0,0.0404 0,0.0322 0,0.028 0.0104,0.0443 0.02,0.0411 0.0104,5e-5 0.02,0.0196 0.0136,0.0133 0.0104,0.0191 0,-0.001 0.0104,0.019 0.0104,0.0278 0.0104,0.0333 0,0.0283 0.0104,0.0362 0.0104,0.0446 0,0.031 -2e-4,0.0478 0,0.0118 0,0.0376 0,0.027 -0.0104,0.0292 -0.0104,0.0266 -0.0104,0.0189 -0.0104,0.0133 -0.0104,0.02 0,0.006 -0.0136,0.0257 -0.0136,0.0254 0,0.003 0,-0.003 -0.0156,0.0118"
       id="path4489" />
  </g>
</svg>
