<?xml version="1.0" encoding="UTF-8" standalone="no"?>
<svg
   xmlns:dc="http://purl.org/dc/elements/1.1/"
   xmlns:cc="http://creativecommons.org/ns#"
   xmlns:rdf="http://www.w3.org/1999/02/22-rdf-syntax-ns#"
   xmlns:svg="http://www.w3.org/2000/svg"
   xmlns="http://www.w3.org/2000/svg"
   xmlns:sodipodi="http://sodipodi.sourceforge.net/DTD/sodipodi-0.dtd"
   xmlns:inkscape="http://www.inkscape.org/namespaces/inkscape"
   version="1.0"
   width="220.96541"
   height="186.23506"
   id="svg2423"
   inkscape:version="0.48.4 r9939"
   sodipodi:docname="vidhanceLogotype.svg">
  <metadata
     id="metadata11">
    <rdf:RDF>
      <cc:Work
         rdf:about="">
        <dc:format>image/svg+xml</dc:format>
        <dc:type
           rdf:resource="http://purl.org/dc/dcmitype/StillImage" />
      </cc:Work>
    </rdf:RDF>
  </metadata>
  <defs
     id="defs9" />
  <sodipodi:namedview
     pagecolor="#ffffff"
     bordercolor="#666666"
     borderopacity="1"
     objecttolerance="10"
     gridtolerance="10"
     guidetolerance="10"
     inkscape:pageopacity="0"
     inkscape:pageshadow="2"
     inkscape:window-width="1879"
     inkscape:window-height="1176"
     id="namedview7"
     showgrid="false"
     showguides="true"
     inkscape:guide-bbox="true"
     inkscape:snap-bbox="false"
     inkscape:object-paths="true"
     inkscape:bbox-paths="true"
     inkscape:snap-intersection-paths="true"
     inkscape:bbox-nodes="true"
     fit-margin-top="30"
     fit-margin-left="30"
     fit-margin-right="30"
     fit-margin-bottom="30"
     inkscape:zoom="3.6227889"
     inkscape:cx="96.35457"
     inkscape:cy="116.21715"
     inkscape:window-x="41"
     inkscape:window-y="24"
     inkscape:window-maximized="1"
     inkscape:current-layer="svg2423" />
  <path
     d="m 111.08571,94.465 0,-8.9125 c 3.39249,0.0475 6.38874,0.26 8.99125,0.5775 -0.33,0.6825 -0.61876,1.4025 -0.98875,2.015 -2.20125,3.6325 -5.01875,5.78375 -8.0025,6.32 m -2.825,-0.0163 c -2.9575,-0.55875 -5.7375,-2.7 -7.92125,-6.30375 -0.371248,-0.61375 -0.673748,-1.33125 -1.003748,-2.015 2.586248,-0.315 5.556248,-0.52875 8.924998,-0.5775 l 0,8.89625 z m -8.185,-1.93 c -2.697498,-1.245 -5.113748,-2.9675 -7.131248,-5.10125 0.035,-0.015 0.0275,-0.0175 0.065,-0.0325 0.71125,-0.29125 1.9525,-0.59125 3.385,-0.8575 0.47875,1.07125 0.97125,2.1375 1.545,3.08625 0.645,1.06125 1.37125,2.0175 2.136248,2.905 m 19.27749,0 c 0.7625,-0.8875 1.4925,-1.84375 2.13375,-2.905 0.57376,-0.94875 1.06875,-2.015 1.54875,-3.08625 1.43126,0.26625 2.67125,0.56625 3.3825,0.8575 0.0263,0.0113 0.0225,0.005 0.0475,0.0175 -2.01875,2.13625 -4.41125,3.87 -7.1125,5.11625 M 91.154462,85.22245 C 88.616964,81.78495 87.056964,77.6362 86.731964,73.1087 l 6.722498,0 c 0.1525,3.885 0.8325,7.51125 1.93625,10.76125 -1.30125,0.26 -2.5425,0.525 -3.43375,0.89125 -0.305,0.12375 -0.5425,0.30875 -0.8025,0.46125 m 37.121238,0 c -0.2625,-0.1525 -0.5025,-0.3375 -0.80625,-0.46125 -0.88625,-0.365 -2.13625,-0.63125 -3.43125,-0.89125 1.10125,-3.25 1.765,-6.87625 1.92,-10.76125 l 6.73875,0 c -0.3275,4.52375 -1.89124,8.67625 -4.42124,12.11375 m -30.072498,-1.815 c -1.08875,-3.0475 -1.76125,-6.5325 -1.92375,-10.29875 l 11.981248,0 0,9.6225 c -3.79875,0.0525 -7.1825,0.28625 -10.057498,0.67625 m 23.004998,0 c -2.8925,-0.39125 -6.2975,-0.62625 -10.1225,-0.67625 l 0,-9.6225 12.06375,0 C 122.9857,76.875 122.2982,80.36 121.2082,83.4075 M 86.681964,70.27 c 0.23125,-4.5575 1.70375,-8.77 4.176248,-12.2625 0.34,0.23375 0.6825,0.45625 1.09875,0.6275 0.85,0.34875 2.0475,0.5875 3.2725,0.84 -1.05875,3.2725 -1.70125,6.91125 -1.81,10.795 l -6.737498,0 z m 9.564998,0 c 0.11375,-3.7575 0.75375,-7.245 1.79125,-10.315 2.903748,0.40125 6.357498,0.65625 10.222498,0.70875 l 0,9.60625 -12.013748,0 z m 14.838748,0 0,-9.60625 c 3.89999,-0.0512 7.37999,-0.3025 10.30249,-0.70875 1.03875,3.07 1.67875,6.5575 1.7925,10.315 l -12.09499,0 z m 14.90749,0 c -0.11125,-3.88375 -0.735,-7.5225 -1.79375,-10.795 1.21875,-0.25 2.4225,-0.49375 3.27,-0.84 0.415,-0.17 0.74625,-0.39875 1.085,-0.6275 2.47251,3.4925 3.96125,7.705 4.1925,12.2625 l -6.75375,0 z M 108.26071,57.825 c -3.475,-0.05 -6.54125,-0.26125 -9.169998,-0.59375 0.3975,-0.86875 0.7875,-1.7475 1.248748,-2.50875 2.18375,-3.60375 4.96375,-5.745 7.92125,-6.305 l 0,9.4075 z m 2.825,0 0,-9.4225 c 2.98374,0.53625 5.80124,2.68625 8.00249,6.32 0.4625,0.76 0.83625,1.64 1.23375,2.50875 -2.6475,0.33375 -5.74125,0.5475 -9.23624,0.59375 M 96.180712,56.8025 c -1.30125,-0.25375 -2.50625,-0.52125 -3.17125,-0.7925 -0.19875,-0.0813 -0.24,-0.12875 -0.36125,-0.19875 2.08125,-2.29125 4.58375,-4.15125 7.427498,-5.4625 -0.764998,0.8875 -1.491248,1.8425 -2.136248,2.905 -0.66375,1.0925 -1.225,2.2925 -1.75875,3.54875 m 27.067498,0 c -0.53375,-1.25625 -1.09875,-2.45625 -1.76126,-3.54875 -0.64125,-1.0625 -1.37125,-2.0175 -2.13375,-2.905 2.84125,1.31125 5.32875,3.17125 7.41125,5.4625 -0.1225,0.0687 -0.155,0.12125 -0.34625,0.19875 -0.6625,0.27125 -1.87125,0.53875 -3.17,0.7925"
     id="path83"
     style="fill:#eeeeec;fill-opacity:1;fill-rule:nonzero;stroke:none"
     inkscape:connector-curvature="0" />
  <path
     d="M 109.71458,30 C 92.289582,30 77.527086,41.10375 71.574586,56.5975 l -10.22625,0 0,9.69875 13.5275,0 c 2.17,0.0188 4.0875,-1.41375 4.69,-3.50375 3.761248,-13.2975 15.789996,-23.09375 30.148744,-23.09375 14.35875,0 26.41625,9.76375 30.29125,23.09375 0.6,2.0725 2.49125,3.5 4.64,3.50375 l 13.435,0 0,-9.69875 -10.08375,0 C 141.95208,41.10375 127.15208,30 109.71458,30 m -48.366244,46.57 0,9.6975 10.17875,0 c 5.94375,15.51625 20.747496,26.6475 38.187494,26.6475 17.44625,0 32.2425,-11.14125 38.2825,-26.6475 l 10.08375,0 0,-9.6975 -13.435,0 c -2.14875,0.002 -4.04,1.43125 -4.64,3.505 -3.875,13.33 -15.9325,23.14125 -30.29125,23.14125 -14.358748,0 -26.387496,-9.79625 -30.148744,-23.0925 -0.585,-2.1125 -2.50625,-3.56625 -4.69,-3.55375 l -13.5275,0 z"
     id="path87"
     style="fill:#eeeeec;fill-opacity:1;fill-rule:nonzero;stroke:none"
     inkscape:connector-curvature="0" />
  <text
     xml:space="preserve"
     style="font-size:31.72240256999999986px;font-style:normal;font-variant:normal;font-weight:600;font-stretch:normal;text-align:center;line-height:125%;letter-spacing:0px;word-spacing:0px;writing-mode:lr-tb;text-anchor:middle;fill:#eeeeec;fill-opacity:1;stroke:none;font-family:URW Gothic L;-inkscape-font-specification:URW Gothic L Semi-Bold"
     x="111.22075"
     y="155.82268"
     id="text2996"
     sodipodi:linespacing="125%"><tspan
       sodipodi:role="line"
       id="tspan2998"
       x="111.22075"
       y="155.82268">VIDHANCE</tspan></text>
</svg>
