<?xml version="1.0" encoding="UTF-8" standalone="no"?>
<!-- Created with Inkscape (http://www.inkscape.org/) -->

<svg
   xmlns:dc="http://purl.org/dc/elements/1.1/"
   xmlns:cc="http://creativecommons.org/ns#"
   xmlns:rdf="http://www.w3.org/1999/02/22-rdf-syntax-ns#"
   xmlns:svg="http://www.w3.org/2000/svg"
   xmlns="http://www.w3.org/2000/svg"
   xmlns:sodipodi="http://sodipodi.sourceforge.net/DTD/sodipodi-0.dtd"
   xmlns:inkscape="http://www.inkscape.org/namespaces/inkscape"
   width="505.52371"
   height="555.72961"
   id="svg4602"
   version="1.1"
   inkscape:version="0.48.4 r9939"
   sodipodi:docname="integration.svg">
  <defs
     id="defs4604" />
  <sodipodi:namedview
     id="base"
     pagecolor="#ffffff"
     bordercolor="#666666"
     borderopacity="1.0"
     inkscape:pageopacity="0.0"
     inkscape:pageshadow="2"
     inkscape:zoom="1.4142136"
     inkscape:cx="158.85139"
     inkscape:cy="278.69929"
     inkscape:document-units="px"
     inkscape:current-layer="layer1"
     showgrid="false"
     inkscape:snap-bbox="true"
     inkscape:bbox-paths="true"
     inkscape:snap-bbox-edge-midpoints="true"
     inkscape:object-nodes="true"
     inkscape:object-paths="false"
     inkscape:snap-intersection-paths="true"
     inkscape:snap-smooth-nodes="true"
     fit-margin-top="20"
     fit-margin-left="20"
     fit-margin-right="20"
     fit-margin-bottom="20"
     inkscape:snap-page="true"
     inkscape:window-width="1920"
     inkscape:window-height="1176"
     inkscape:window-x="1920"
     inkscape:window-y="24"
     inkscape:window-maximized="1" />
  <metadata
     id="metadata4607">
    <rdf:RDF>
      <cc:Work
         rdf:about="">
        <dc:format>image/svg+xml</dc:format>
        <dc:type
           rdf:resource="http://purl.org/dc/dcmitype/StillImage" />
        <dc:title />
      </cc:Work>
    </rdf:RDF>
  </metadata>
  <g
     inkscape:label="Layer 1"
     inkscape:groupmode="layer"
     id="layer1"
     transform="translate(-1.6701726,-427.83696)">
    <path
       style="fill:none;stroke:#2e3436;stroke-width:1px;stroke-linecap:butt;stroke-linejoin:miter;stroke-opacity:1"
       d="m 1.6701726,521.56658 505.5237074,0.25"
       id="path4797"
       inkscape:connector-curvature="0"
       sodipodi:nodetypes="cc" />
    <path
       inkscape:connector-curvature="0"
       id="path4799"
       d="m 1.6701726,811.56658 505.5237074,0"
       style="fill:none;stroke:#2e3436;stroke-width:1px;stroke-linecap:butt;stroke-linejoin:miter;stroke-opacity:1"
       sodipodi:nodetypes="cc" />
    <text
       sodipodi:linespacing="125%"
       id="text3771-8"
       y="898.09827"
       x="59.621685"
       style="font-size:19.46604729px;font-style:normal;font-variant:normal;font-weight:normal;font-stretch:normal;text-align:center;line-height:125%;letter-spacing:0px;word-spacing:0px;writing-mode:lr-tb;text-anchor:middle;fill:#2e3436;fill-opacity:1;stroke:none;display:inline;font-family:Myriad Pro;-inkscape-font-specification:Myriad Pro"
       xml:space="preserve"
       transform="scale(0.99980963,1.0001904)"><tspan
         y="898.09827"
         x="59.621685"
         id="tspan3773-4"
         sodipodi:role="line"
         style="font-size:19.46604729px;font-style:normal;font-variant:normal;font-weight:normal;font-stretch:normal;text-align:center;line-height:125%;writing-mode:lr-tb;text-anchor:middle;fill:#2e3436;stroke:none;font-family:Myriad Pro;-inkscape-font-specification:Myriad Pro">Hardware</tspan></text>
    <text
       transform="scale(0.99980963,1.0001904)"
       xml:space="preserve"
       style="font-size:19.46604729px;font-style:normal;font-variant:normal;font-weight:normal;font-stretch:normal;text-align:center;line-height:125%;letter-spacing:0px;word-spacing:0px;writing-mode:lr-tb;text-anchor:middle;fill:#2e3436;fill-opacity:1;stroke:none;display:inline;font-family:Myriad Pro;-inkscape-font-specification:Myriad Pro"
       x="93.533974"
       y="672.39398"
       id="text7981-5"
       sodipodi:linespacing="125%"><tspan
         style="font-size:19.46604729px;font-style:normal;font-variant:normal;font-weight:normal;font-stretch:normal;text-align:center;line-height:125%;writing-mode:lr-tb;text-anchor:middle;fill:#2e3436;stroke:none;font-family:Myriad Pro;-inkscape-font-specification:Myriad Pro"
         sodipodi:role="line"
         id="tspan7983-5"
         x="93.533966"
         y="672.39398">Operating System</tspan></text>
    <text
       sodipodi:linespacing="125%"
       id="text7985-0"
       y="485.17224"
       x="68.027824"
       style="font-size:19.46604729px;font-style:normal;font-variant:normal;font-weight:normal;font-stretch:normal;text-align:center;line-height:125%;letter-spacing:0px;word-spacing:0px;writing-mode:lr-tb;text-anchor:middle;fill:#2e3436;fill-opacity:1;stroke:none;display:inline;font-family:Myriad Pro;-inkscape-font-specification:Myriad Pro"
       xml:space="preserve"
       transform="scale(0.99980963,1.0001904)"><tspan
         y="485.17224"
         x="68.027824"
         id="tspan7987-9"
         sodipodi:role="line"
         style="font-size:19.46604729px;font-style:normal;font-variant:normal;font-weight:normal;font-stretch:normal;text-align:center;line-height:125%;writing-mode:lr-tb;text-anchor:middle;fill:#2e3436;stroke:none;font-family:Myriad Pro;-inkscape-font-specification:Myriad Pro">Application</tspan></text>
    <text
       xml:space="preserve"
       style="font-size:16.22170639px;font-style:normal;font-variant:normal;font-weight:normal;font-stretch:normal;text-align:center;line-height:125%;letter-spacing:0px;word-spacing:0px;writing-mode:lr-tb;text-anchor:middle;fill:#888a85;fill-opacity:1;stroke:none;display:inline;font-family:Myriad Pro;-inkscape-font-specification:Myriad Pro"
       x="438.10602"
       y="673.78113"
       id="text8261-7"
       sodipodi:linespacing="125%"
       transform="scale(1.0000015,0.99999851)"><tspan
         id="tspan8263-8"
         y="673.78113"
         x="438.10602"
         style="font-size:16.22170639px;font-style:normal;font-variant:normal;font-weight:normal;font-stretch:normal;text-align:center;line-height:125%;writing-mode:lr-tb;text-anchor:middle;fill:#888a85;font-family:Myriad Pro;-inkscape-font-specification:Myriad Pro"
         sodipodi:role="line">3rd generation</tspan></text>
    <g
       id="g4735"
       transform="translate(-0.25,0.15467961)">
      <rect
         y="447.68228"
         x="204.83965"
         height="64.886826"
         width="162.21706"
         id="rect4461"
         style="fill:#062747;fill-opacity:1;stroke:none;display:inline" />
      <text
         transform="scale(0.99980963,1.0001904)"
         sodipodi:linespacing="125%"
         id="text3795-8"
         y="486.58536"
         x="286.37216"
         style="font-size:25.5394783px;font-style:normal;font-variant:normal;font-weight:600;font-stretch:normal;text-align:center;line-height:125%;letter-spacing:0px;word-spacing:0px;writing-mode:lr-tb;text-anchor:middle;fill:#ffffff;fill-opacity:1;stroke:none;display:inline;font-family:Myriad Pro;-inkscape-font-specification:Myriad Pro Semi-Bold"
         xml:space="preserve"><tspan
           style="font-size:25.5394783px;font-style:normal;font-variant:normal;font-weight:600;font-stretch:normal;text-align:center;line-height:125%;writing-mode:lr-tb;text-anchor:middle;fill:#ffffff;fill-opacity:1;stroke:none;font-family:Myriad Pro;-inkscape-font-specification:Myriad Pro Semi-Bold"
           id="tspan3803-3"
           y="486.58536"
           x="286.37216"
           sodipodi:role="line">Video App</tspan></text>
    </g>
    <path
       inkscape:connector-curvature="0"
       id="path5063"
       d="m 286.07318,804.53502 0,14.92518"
       style="fill:none;stroke:#062747;stroke-width:6.48868179;stroke-linecap:butt;stroke-linejoin:miter;stroke-miterlimit:4;stroke-opacity:1;stroke-dasharray:none;display:inline"
       sodipodi:nodetypes="cc" />
    <text
       transform="scale(1.0000015,0.99999851)"
       sodipodi:linespacing="125%"
       id="text5093"
       y="935.18811"
       x="440.74179"
       style="font-size:16.22170639px;font-style:normal;font-variant:normal;font-weight:normal;font-stretch:normal;text-align:center;line-height:125%;letter-spacing:0px;word-spacing:0px;writing-mode:lr-tb;text-anchor:middle;fill:#888a85;fill-opacity:1;stroke:none;display:inline;font-family:Myriad Pro;-inkscape-font-specification:Myriad Pro"
       xml:space="preserve"><tspan
         sodipodi:role="line"
         style="font-size:16.22170639px;font-style:normal;font-variant:normal;font-weight:normal;font-stretch:normal;text-align:center;line-height:125%;writing-mode:lr-tb;text-anchor:middle;fill:#888a85;font-family:Myriad Pro;-inkscape-font-specification:Myriad Pro"
         x="440.74179"
         y="935.18811"
         id="tspan5095">2nd gen. (OIS)</tspan></text>
    <text
       xml:space="preserve"
       style="font-size:16.22170639px;font-style:normal;font-variant:normal;font-weight:normal;font-stretch:normal;text-align:center;line-height:125%;letter-spacing:0px;word-spacing:0px;writing-mode:lr-tb;text-anchor:middle;fill:#888a85;fill-opacity:1;stroke:none;display:inline;font-family:Myriad Pro;-inkscape-font-specification:Myriad Pro"
       x="445.43088"
       y="855.74097"
       id="text5097"
       sodipodi:linespacing="125%"
       transform="scale(1.0000015,0.99999851)"><tspan
         id="tspan5099"
         y="855.74097"
         x="445.43088"
         style="font-size:16.22170639px;font-style:normal;font-variant:normal;font-weight:normal;font-stretch:normal;text-align:center;line-height:125%;writing-mode:lr-tb;text-anchor:middle;fill:#888a85;font-family:Myriad Pro;-inkscape-font-specification:Myriad Pro"
         sodipodi:role="line">1st gen. (EIS)</tspan></text>
    <path
       style="fill:#a92000;fill-opacity:1;stroke:none;display:inline"
       d="m 191.24505,615.08929 0,189.25446 21.6875,0 0,-83.28125 146.03125,0 0,83.28125 21.6875,0 0,-189.25446 z"
       id="rect3805-7"
       inkscape:connector-curvature="0"
       sodipodi:nodetypes="ccccccccc" />
    <path
       d="m 323.19236,701.03775 6.90901,0 0,-2.2798 -4.52479,0 0,-2.99334 4.33338,0 0,-2.27979 -4.33338,0 0,-3.02813 4.52479,0 0,-2.27981 -6.90901,0 0,12.86087 m -4.32113,-3.58504 c -1.04418,1.09639 -1.94914,1.51407 -3.18475,1.51407 -2.36682,0 -4.31596,-1.98395 -4.31596,-4.38557 0,-1.04418 0.40028,-2.15798 1.06159,-2.92371 0.78314,-0.92237 1.89693,-1.40965 3.20216,-1.40965 1.49666,0 2.50604,0.48728 3.3762,1.61848 l 2.66266,0 c -0.50469,-1.11379 -0.95715,-1.7229 -1.82731,-2.43642 -1.18341,-0.95718 -2.69749,-1.47927 -4.26376,-1.47927 -3.63724,0 -6.61316,2.97593 -6.61316,6.61316 0,3.70686 3.01074,6.70018 6.76979,6.70018 2.62786,0 4.92507,-1.46185 5.93444,-3.81127 l -2.8019,0 m -22.12336,3.58504 2.38423,0 0,-9.34544 5.37754,9.34544 2.66267,0 0,-12.86087 -2.38423,0 0,9.36285 -5.32533,-9.36285 -2.71488,0 0,12.86087 m -13.94393,0 2.62786,0 1.42705,-3.32398 4.57701,0 1.37484,3.32398 2.62786,0 -5.39495,-12.86087 -1.87953,0 -5.36014,12.86087 m 4.92507,-5.60379 1.37484,-3.89828 1.37484,3.89828 -2.74968,0 m -15.69212,5.60379 2.38421,0 0,-5.39495 4.59441,0 0,5.39495 2.38421,0 0,-12.86087 -2.38421,0 0,5.18611 -4.59441,0 0,-5.18611 -2.38421,0 0,12.86087 m -12.16856,0 2.99333,0 c 1.94914,0 3.11515,-0.19144 4.15934,-0.71353 1.98394,-0.97456 3.14996,-3.09775 3.14996,-5.69079 0,-2.43644 -1.00939,-4.45519 -2.80191,-5.53418 -1.00937,-0.60911 -2.54084,-0.92237 -4.5596,-0.92237 l -2.94112,0 0,12.86087 m 2.38423,-2.2798 0,-8.30126 0.46988,0 c 1.51406,0 2.332,0.13922 3.08035,0.52209 1.2182,0.62651 1.96654,2.00134 1.96654,3.65465 0,1.54886 -0.71353,2.92371 -1.86214,3.55021 -0.71351,0.40027 -1.7055,0.57431 -3.13255,0.57431 l -0.52208,0 m -7.24485,2.2798 2.38423,0 0,-12.86087 -2.38423,0 0,12.86087 m -8.20065,0 1.94914,0 4.97728,-12.86087 -2.50604,0 -3.46322,9.78052 -3.46321,-9.78052 -2.50603,0 5.01208,12.86087 m 38.71973,-69.02692 c -9.55945,0 -17.65822,6.09157 -20.92379,14.5915 l -5.61018,0 0,5.32079 7.42126,0 c 1.19047,0.01 2.24241,-0.77559 2.57296,-1.92218 2.06344,-7.29506 8.66246,-12.66933 16.53975,-12.66933 7.87728,0 14.49207,5.35643 16.61792,12.66933 0.32916,1.13699 1.36671,1.92013 2.54553,1.92218 l 7.3705,0 0,-5.32079 -5.53199,0 c -3.31632,-8.49993 -11.43567,-14.5915 -21.00196,-14.5915 m -26.53397,25.54852 0,5.32009 5.58412,0 c 3.26078,8.51229 11.38218,14.61896 20.94985,14.61896 9.57109,0 17.68838,-6.11215 21.00196,-14.61896 l 5.53199,0 0,-5.32009 -7.3705,0 c -1.17882,10e-4 -2.21637,0.78519 -2.54553,1.92286 -2.12585,7.31291 -8.74064,12.6954 -16.61792,12.6954 -7.87729,0 -14.47631,-5.37427 -16.53975,-12.66865 -0.32094,-1.15893 -1.37494,-1.95646 -2.57296,-1.94961 l -7.42126,0 z m 27.28617,9.81728 0,-4.88944 c 1.86114,0.0261 3.5049,0.14264 4.93264,0.31683 -0.18103,0.37441 -0.33945,0.76941 -0.54242,1.10543 -1.20762,1.99281 -2.75332,3.17299 -4.39022,3.46718 m -1.54981,-0.008 c -1.62249,-0.30653 -3.14761,-1.48123 -4.34563,-3.45827 -0.20368,-0.33671 -0.36962,-0.73032 -0.55066,-1.10544 1.41883,-0.1728 3.04818,-0.29008 4.89629,-0.31681 l 0,4.88052 z m -4.49033,-1.0588 c -1.47986,-0.68302 -2.80542,-1.62799 -3.91222,-2.79857 0.0192,-0.007 0.015,-0.01 0.0357,-0.0178 0.39019,-0.15977 1.07114,-0.32436 1.85703,-0.47042 0.26263,0.58768 0.53282,1.17264 0.84758,1.69313 0.35385,0.5822 0.75227,1.1068 1.17196,1.59368 m 10.57573,0 c 0.4183,-0.48688 0.81878,-1.01148 1.17058,-1.59368 0.31476,-0.52049 0.58632,-1.10545 0.84965,-1.69313 0.78519,0.14606 1.46545,0.31065 1.85566,0.47042 0.0144,0.007 0.0123,0.002 0.0261,0.01 -1.1075,1.17196 -2.42005,2.1231 -3.90196,2.8068 m -15.46997,-4.00276 c -1.39208,-1.88583 -2.2479,-4.16186 -2.42619,-6.64566 l 3.68799,0 c 0.0836,2.13133 0.4567,4.12071 1.06223,5.90368 -0.71387,0.14263 -1.39483,0.28801 -1.88376,0.48895 -0.16733,0.0679 -0.29763,0.16938 -0.44027,0.25303 m 20.3649,0 c -0.14401,-0.0836 -0.27569,-0.18515 -0.44232,-0.25303 -0.4862,-0.20025 -1.17196,-0.34632 -1.8824,-0.48895 0.60415,-1.78297 0.96829,-3.77235 1.05332,-5.90368 l 3.69692,0 c -0.17968,2.48175 -1.03755,4.75983 -2.42552,6.64566 m -16.49792,-0.99572 c -0.59728,-1.67188 -0.96623,-3.58375 -1.05538,-5.64994 l 6.57298,0 0,5.27895 c -2.08402,0.0287 -3.94036,0.15704 -5.5176,0.37099 m 12.62066,0 c -1.58685,-0.21464 -3.45484,-0.34356 -5.55326,-0.37099 l 0,-5.27895 6.61824,0 c -0.0898,2.06621 -0.467,3.9781 -1.06499,5.64998 m -18.94125,-7.2073 c 0.12685,-2.50027 0.93468,-4.81127 2.2911,-6.72727 0.18653,0.12823 0.37442,0.2503 0.60279,0.34425 0.4663,0.19132 1.12326,0.32231 1.7953,0.46082 -0.58083,1.79532 -0.93332,3.79156 -0.99298,5.9222 l -3.69621,0 z m 5.24739,0 c 0.0624,-2.06138 0.41352,-3.97465 0.98269,-5.65886 1.59302,0.22012 3.48776,0.36002 5.60812,0.38882 l 0,5.27004 -6.59081,0 z m 8.14061,0 0,-5.27004 c 2.13956,-0.0281 4.0487,-0.16596 5.65199,-0.38882 0.56987,1.68421 0.92097,3.59748 0.98339,5.65886 l -6.63538,0 z m 8.17833,0 c -0.0611,-2.13064 -0.40323,-4.12688 -0.98407,-5.9222 0.66862,-0.13714 1.329,-0.27087 1.79394,-0.46082 0.22768,-0.0933 0.4094,-0.21876 0.59524,-0.34425 1.35644,1.916 2.17316,4.227 2.30003,6.72727 l -3.70514,0 z m -9.72813,-6.82739 c -1.9064,-0.0274 -3.58856,-0.14332 -5.03071,-0.32573 0.21808,-0.4766 0.43202,-0.95868 0.68506,-1.37631 1.19803,-1.97704 2.72315,-3.15173 4.34565,-3.45895 l 0,5.16099 z m 1.5498,0 0,-5.16923 c 1.63689,0.29418 3.18259,1.47369 4.39021,3.46719 0.25373,0.41694 0.45877,0.89971 0.67683,1.37631 -1.45242,0.18309 -3.14967,0.30036 -5.06704,0.32573 m -8.17694,-0.56094 c -0.71388,-0.13921 -1.37494,-0.28597 -1.73977,-0.43478 -0.10904,-0.0446 -0.13166,-0.0706 -0.19819,-0.10904 1.14179,-1.25699 2.51466,-2.27739 4.07477,-2.99676 -0.41969,0.48689 -0.81811,1.0108 -1.17195,1.5937 -0.36414,0.59935 -0.67206,1.25768 -0.96486,1.94686 m 14.84935,0 c -0.29281,-0.68918 -0.60278,-1.34751 -0.96623,-1.94686 -0.3518,-0.5829 -0.75228,-1.10681 -1.17059,-1.5937 1.55872,0.71937 2.92338,1.73977 4.06585,2.99676 -0.0672,0.0377 -0.0851,0.0664 -0.18995,0.10904 -0.36346,0.14881 -1.02659,0.29557 -1.73908,0.43478"
       id="vidhanceLogo"
       inkscape:connector-curvature="0"
       style="fill:#ffffff;fill-opacity:1" />
    <rect
       style="fill:#062747;fill-opacity:1;stroke:none"
       id="rect3779-8"
       width="113.55193"
       height="64.886765"
       x="229.17221"
       y="739.64825" />
    <text
       transform="scale(0.99980963,1.0001904)"
       sodipodi:linespacing="125%"
       id="text4503"
       y="778.49561"
       x="285.30627"
       style="font-size:25.5394783px;font-style:normal;font-variant:normal;font-weight:600;font-stretch:normal;text-align:center;line-height:125%;letter-spacing:0px;word-spacing:0px;writing-mode:lr-tb;text-anchor:middle;fill:#ffffff;fill-opacity:1;stroke:none;display:inline;font-family:Myriad Pro;-inkscape-font-specification:Myriad Pro Semi-Bold"
       xml:space="preserve"><tspan
         style="font-size:25.5394783px;font-style:normal;font-variant:normal;font-weight:600;font-stretch:normal;text-align:center;line-height:125%;writing-mode:lr-tb;text-anchor:middle;fill:#ffffff;fill-opacity:1;stroke:none;font-family:Myriad Pro;-inkscape-font-specification:Myriad Pro Semi-Bold"
         id="tspan4505"
         y="778.49561"
         x="285.30627"
         sodipodi:role="line">Driver</tspan></text>
    <path
       style="fill:none;stroke:#062747;stroke-width:6.48868179;stroke-linecap:butt;stroke-linejoin:miter;stroke-miterlimit:4;stroke-opacity:1;stroke-dasharray:none;display:inline"
       d="m 285.94818,739.79113 0,-18.80651"
       id="path5069"
       inkscape:connector-curvature="0"
       sodipodi:nodetypes="cc" />
    <g
       id="g4740">
      <rect
         style="fill:#062747;fill-opacity:1;stroke:none;display:inline"
         id="rect4719"
         width="270.21704"
         height="64.886826"
         x="150.66107"
         y="531.45557" />
      <text
         xml:space="preserve"
         style="font-size:25.5394783px;font-style:normal;font-variant:normal;font-weight:600;font-stretch:normal;text-align:center;line-height:125%;letter-spacing:0px;word-spacing:0px;writing-mode:lr-tb;text-anchor:middle;fill:#ffffff;fill-opacity:1;stroke:none;display:inline;font-family:Myriad Pro;-inkscape-font-specification:Myriad Pro Semi-Bold"
         x="286.55078"
         y="570.0694"
         id="text4721"
         sodipodi:linespacing="125%"
         transform="scale(0.99980963,1.0001904)"><tspan
           sodipodi:role="line"
           x="286.55078"
           y="570.0694"
           id="tspan4723"
           style="font-size:25.5394783px;font-style:normal;font-variant:normal;font-weight:600;font-stretch:normal;text-align:center;line-height:125%;writing-mode:lr-tb;text-anchor:middle;fill:#ffffff;fill-opacity:1;stroke:none;font-family:Myriad Pro;-inkscape-font-specification:Myriad Pro Semi-Bold">Standard Camera API</tspan></text>
    </g>
    <path
       sodipodi:nodetypes="cc"
       inkscape:connector-curvature="0"
       id="path4725"
       d="m 286.12496,615.08929 -0.17678,-18.7469"
       style="fill:none;stroke:#062747;stroke-width:6.48868179;stroke-linecap:butt;stroke-linejoin:miter;stroke-miterlimit:4;stroke-opacity:1;stroke-dasharray:none;display:inline" />
    <path
       style="fill:none;stroke:#062747;stroke-width:6.48868179;stroke-linecap:butt;stroke-linejoin:miter;stroke-miterlimit:4;stroke-opacity:1;stroke-dasharray:none;display:inline"
       d="m 286.03657,531.45557 0,-18.80651"
       id="path4727"
       inkscape:connector-curvature="0"
       sodipodi:nodetypes="cc" />
    <rect
       style="fill:#062747;fill-opacity:1;stroke:none"
       id="rect4539"
       width="81.108521"
       height="64.886765"
       x="245.39392"
       y="819.36255" />
    <rect
       style="fill:#062747;fill-opacity:1;stroke:none"
       id="rect4547"
       width="113.55193"
       height="64.886765"
       x="225.96736"
       y="898.67981" />
    <text
       xml:space="preserve"
       style="font-size:25.5394783px;font-style:normal;font-variant:normal;font-weight:600;font-stretch:normal;text-align:center;line-height:125%;letter-spacing:0px;word-spacing:0px;writing-mode:lr-tb;text-anchor:middle;fill:#ffffff;fill-opacity:1;stroke:none;display:inline;font-family:Myriad Pro;-inkscape-font-specification:Myriad Pro Semi-Bold"
       x="285.55051"
       y="858.19446"
       id="text4541"
       sodipodi:linespacing="125%"
       transform="scale(0.99980963,1.0001904)"><tspan
         sodipodi:role="line"
         x="285.55051"
         y="858.19446"
         id="tspan4543"
         style="font-size:25.5394783px;font-style:normal;font-variant:normal;font-weight:600;font-stretch:normal;text-align:center;line-height:125%;writing-mode:lr-tb;text-anchor:middle;fill:#ffffff;fill-opacity:1;stroke:none;font-family:Myriad Pro;-inkscape-font-specification:Myriad Pro Semi-Bold">DSP</tspan></text>
    <path
       sodipodi:nodetypes="cccc"
       style="fill:#062747;fill-opacity:1;stroke:none;display:inline"
       d="m 225.96762,920.8554 -25.9547,-15.68687 0,51.90945 25.9053,-16.45027"
       id="path2991-2"
       inkscape:connector-curvature="0" />
    <text
       transform="scale(0.99980963,1.0001904)"
       sodipodi:linespacing="125%"
       id="text4549"
       y="937.49664"
       x="282.10181"
       style="font-size:25.5394783px;font-style:normal;font-variant:normal;font-weight:600;font-stretch:normal;text-align:center;line-height:125%;letter-spacing:0px;word-spacing:0px;writing-mode:lr-tb;text-anchor:middle;fill:#ffffff;fill-opacity:1;stroke:none;display:inline;font-family:Myriad Pro;-inkscape-font-specification:Myriad Pro Semi-Bold"
       xml:space="preserve"><tspan
         style="font-size:25.5394783px;font-style:normal;font-variant:normal;font-weight:600;font-stretch:normal;text-align:center;line-height:125%;writing-mode:lr-tb;text-anchor:middle;fill:#ffffff;fill-opacity:1;stroke:none;font-family:Myriad Pro;-inkscape-font-specification:Myriad Pro Semi-Bold"
         id="tspan4551"
         y="937.49664"
         x="282.10181"
         sodipodi:role="line">Camera</tspan></text>
    <path
       sodipodi:nodetypes="cc"
       style="fill:none;stroke:#062747;stroke-width:6.48868179;stroke-linecap:butt;stroke-linejoin:miter;stroke-miterlimit:4;stroke-opacity:1;stroke-dasharray:none;display:inline"
       d="m 286.07318,884.26986 0,14.92518"
       id="path4747"
       inkscape:connector-curvature="0" />
  </g>
</svg>
